# The Great Editor v0.0.1
mtllib floor_1.mtl
o floor_1
v 23.979271052631596 -9.321923130193912 0
v 23.979271052631596 -9.321923130193912 -0.1
v 28.929527008310266 -9.324086703601115 0
v 28.929527008310266 -9.324086703601115 -0.1
v 28.912095290858744 -21.92579362880888 0
v 28.912095290858744 -21.92579362880888 -0.1
v 23.980379224376748 -21.92051662049863 0
v 23.980379224376748 -21.92051662049863 -0.1
vt 23.979271052631596 -9.321923130193912 0
vt 28.929527008310266 -9.324086703601115 0
vt 28.912095290858744 -21.92579362880888 0
vt 23.980379224376748 -21.92051662049863 0
vn 0 0 1
vn 0 0 -1
usemtl floor_1
s off
f 1/1/1 7/4/1 3/2/1
f 4/2/2 8/4/2 2/1/2
f 3/2/1 7/4/1 5/3/1
f 6/3/2 8/4/2 4/2/2
