# The Great Editor v0.0.1
mtllib floor_2.mtl
o floor_2
v 25.625855955678688 -3.851055124653742 0
v 25.625855955678688 -3.851055124653742 -0.1
v 26.110566759002786 -3.851055124653742 0
v 26.110566759002786 -3.851055124653742 -0.1
v 26.116863988919683 -3.580379778393354 0
v 26.116863988919683 -3.580379778393354 -0.1
v 26.94776412742384 -3.580379778393354 0
v 26.94776412742384 -3.580379778393354 -0.1
v 26.954061357340738 -3.813289335180058 0
v 26.954061357340738 -3.813289335180058 -0.1
v 32.43221163434905 -3.8240544321329666 0
v 32.43221163434905 -3.8240544321329666 -0.1
v 32.43706648199448 -4.638982825484768 0
v 32.43706648199448 -4.638982825484768 -0.1
v 33.17605872576179 -4.633072576177288 0
v 33.17605872576179 -4.633072576177288 -0.1
v 33.17605872576179 -5.570110941828259 0
v 33.17605872576179 -5.570110941828259 -0.1
v 32.4459318559557 -5.578976315789477 0
v 32.4459318559557 -5.578976315789477 -0.1
v 32.47374168975072 -12.186195290858734 0
v 32.47374168975072 -12.186195290858734 -0.1
v 32.61170027700833 -12.180918282548484 0
v 32.61170027700833 -12.180918282548484 -0.1
v 32.62666939058174 -12.997025207756241 0
v 32.62666939058174 -12.997025207756241 -0.1
v 32.476925484764564 -12.997025207756241 0
v 32.476925484764564 -12.997025207756241 -0.1
v 32.49564127423825 -13.869279501385051 0
v 32.49564127423825 -13.869279501385051 -0.1
v 32.38334653739614 -13.869279501385051 0
v 32.38334653739614 -13.869279501385051 -0.1
v 32.384507479224396 -14.709643074792254 0
v 32.384507479224396 -14.709643074792254 -0.1
v 32.084579916897525 -14.730328947368431 0
v 32.084579916897525 -14.730328947368431 -0.1
v 32.04885457063714 -21.15742603878118 0
v 32.04885457063714 -21.15742603878118 -0.1
v 32.380901523545724 -21.16915858725763 0
v 32.380901523545724 -21.16915858725763 -0.1
v 32.36528157894739 -21.872337534626055 0
v 32.36528157894739 -21.872337534626055 -0.1
v 32.064474515235474 -21.876242520775637 0
v 32.064474515235474 -21.876242520775637 -0.1
v 32.070560664819965 -25.892626315789492 0
v 32.070560664819965 -25.892626315789492 -0.1
v 32.42568573407205 -25.896038781163455 0
v 32.42568573407205 -25.896038781163455 -0.1
v 32.41886080332412 -26.141894598337966 0
v 32.41886080332412 -26.141894598337966 -0.1
v 33.24863518005542 -26.131657202216083 0
v 33.24863518005542 -26.131657202216083 -0.1
v 33.24863518005542 -28.248775346260405 0
v 33.24863518005542 -28.248775346260405 -0.1
v 32.437119252077586 -28.253454293628828 0
v 32.437119252077586 -28.253454293628828 -0.1
v 32.36821911357343 -28.46624085872578 0
v 32.36821911357343 -28.46624085872578 -0.1
v 32.374410803324125 -29.193236703601126 0
v 32.374410803324125 -29.193236703601126 -0.1
v 32.139495983379526 -29.214590997229937 0
v 32.139495983379526 -29.214590997229937 -0.1
v 32.139495983379526 -30.38918268698063 0
v 32.139495983379526 -30.38918268698063 -0.1
v 28.978796675900295 -30.453245567867057 0
v 28.978796675900295 -30.453245567867057 -0.1
v 28.96810193905819 -29.33747493074794 0
v 28.96810193905819 -29.33747493074794 -0.1
v 28.67324030470916 -29.33747493074794 0
v 28.67324030470916 -29.33747493074794 -0.1
v 28.66493781163437 -28.598236426592816 0
v 28.66493781163437 -28.598236426592816 -0.1
v 28.939043213296415 -28.57748019390584 0
v 28.939043213296415 -28.57748019390584 -0.1
v 28.943194459833816 -28.26184473684212 0
v 28.943194459833816 -28.26184473684212 -0.1
v 22.61709930747924 -28.246365512465392 0
v 22.61709930747924 -28.246365512465392 -0.1
v 22.600670221606663 -29.30651648199448 0
v 22.600670221606663 -29.30651648199448 -0.1
v 20.43929556786705 -29.30651648199448 0
v 20.43929556786705 -29.30651648199448 -0.1
v 20.431081024930762 -28.25459764542938 0
v 20.431081024930762 -28.25459764542938 -0.1
v 18.902525207756245 -28.262812188365668 0
v 18.902525207756245 -28.262812188365668 -0.1
v 18.902525207756245 -28.040913988919684 0
v 18.902525207756245 -28.040913988919684 -0.1
v 18.582017313019403 -28.049146121883677 0
v 18.582017313019403 -28.049146121883677 -0.1
v 18.573802770083116 -28.27102673130196 0
v 18.573802770083116 -28.27102673130196 -0.1
v 14.147729639889207 -28.234439473684226 0
v 14.147729639889207 -28.234439473684226 -0.1
v 14.147729639889207 -28.520506094182846 0
v 14.147729639889207 -28.520506094182846 -0.1
v 13.698198891966769 -28.520506094182846 0
v 13.698198891966769 -28.520506094182846 -0.1
v 13.698198891966769 -30.768124653739633 0
v 13.698198891966769 -30.768124653739633 -0.1
v 11.793849722991698 -30.79264515235459 0
v 11.793849722991698 -30.79264515235459 -0.1
v 11.796030886426601 -28.19593490304711 0
v 11.796030886426601 -28.19593490304711 -0.1
v 9.780178531855961 -28.19593490304711 0
v 9.780178531855961 -28.19593490304711 -0.1
v 9.76934307479225 -26.917051939058187 0
v 9.76934307479225 -26.917051939058187 -0.1
v 10.322074515235464 -26.917051939058187 0
v 10.322074515235464 -26.917051939058187 -0.1
v 10.317641828254855 -26.347592382271486 0
v 10.317641828254855 -26.347592382271486 -0.1
v 11.823576869806102 -26.35079376731304 0
v 11.823576869806102 -26.35079376731304 -0.1
v 11.840410526315797 -7.397503739612193 0
v 11.840410526315797 -7.397503739612193 -0.1
v 8.634751108033248 -7.397503739612193 0
v 8.634751108033248 -7.397503739612193 -0.1
v 8.643194321329647 -5.524728670360115 0
v 8.643194321329647 -5.524728670360115 -0.1
v 11.781360803324107 -5.524728670360115 0
v 11.781360803324107 -5.524728670360115 -0.1
v 11.789786426592807 -5.339136288088646 0
v 11.789786426592807 -5.339136288088646 -0.1
v 16.70046481994461 -5.3492857340720255 0
v 16.70046481994461 -5.3492857340720255 -0.1
v 16.706463019390593 -4.954917313019394 0
v 16.706463019390593 -4.954917313019394 -0.1
v 17.52867368421054 -4.969112465373964 0
v 17.52867368421054 -4.969112465373964 -0.1
v 17.51067908587259 -5.329162742382275 0
v 17.51067908587259 -5.329162742382275 -0.1
v 24.009613850415526 -5.3471573407202255 0
v 24.009613850415526 -5.3471573407202255 -0.1
v 24.009613850415526 -5.059120637119117 0
v 24.009613850415526 -5.059120637119117 -0.1
v 24.837717174515255 -5.077115235457067 0
v 24.837717174515255 -5.077115235457067 -0.1
v 24.7837157894737 -5.311150554016623 0
v 24.7837157894737 -5.311150554016623 -0.1
v 25.647843490304727 -5.3471573407202255 0
v 25.647843490304727 -5.3471573407202255 -0.1
vt 25.625855955678688 -3.851055124653742 0
vt 26.110566759002786 -3.851055124653742 0
vt 26.116863988919683 -3.580379778393354 0
vt 26.94776412742384 -3.580379778393354 0
vt 26.954061357340738 -3.813289335180058 0
vt 32.43221163434905 -3.8240544321329666 0
vt 32.43706648199448 -4.638982825484768 0
vt 33.17605872576179 -4.633072576177288 0
vt 33.17605872576179 -5.570110941828259 0
vt 32.4459318559557 -5.578976315789477 0
vt 32.47374168975072 -12.186195290858734 0
vt 32.61170027700833 -12.180918282548484 0
vt 32.62666939058174 -12.997025207756241 0
vt 32.476925484764564 -12.997025207756241 0
vt 32.49564127423825 -13.869279501385051 0
vt 32.38334653739614 -13.869279501385051 0
vt 32.384507479224396 -14.709643074792254 0
vt 32.084579916897525 -14.730328947368431 0
vt 32.04885457063714 -21.15742603878118 0
vt 32.380901523545724 -21.16915858725763 0
vt 32.36528157894739 -21.872337534626055 0
vt 32.064474515235474 -21.876242520775637 0
vt 32.070560664819965 -25.892626315789492 0
vt 32.42568573407205 -25.896038781163455 0
vt 32.41886080332412 -26.141894598337966 0
vt 33.24863518005542 -26.131657202216083 0
vt 33.24863518005542 -28.248775346260405 0
vt 32.437119252077586 -28.253454293628828 0
vt 32.36821911357343 -28.46624085872578 0
vt 32.374410803324125 -29.193236703601126 0
vt 32.139495983379526 -29.214590997229937 0
vt 32.139495983379526 -30.38918268698063 0
vt 28.978796675900295 -30.453245567867057 0
vt 28.96810193905819 -29.33747493074794 0
vt 28.67324030470916 -29.33747493074794 0
vt 28.66493781163437 -28.598236426592816 0
vt 28.939043213296415 -28.57748019390584 0
vt 28.943194459833816 -28.26184473684212 0
vt 22.61709930747924 -28.246365512465392 0
vt 22.600670221606663 -29.30651648199448 0
vt 20.43929556786705 -29.30651648199448 0
vt 20.431081024930762 -28.25459764542938 0
vt 18.902525207756245 -28.262812188365668 0
vt 18.902525207756245 -28.040913988919684 0
vt 18.582017313019403 -28.049146121883677 0
vt 18.573802770083116 -28.27102673130196 0
vt 14.147729639889207 -28.234439473684226 0
vt 14.147729639889207 -28.520506094182846 0
vt 13.698198891966769 -28.520506094182846 0
vt 13.698198891966769 -30.768124653739633 0
vt 11.793849722991698 -30.79264515235459 0
vt 11.796030886426601 -28.19593490304711 0
vt 9.780178531855961 -28.19593490304711 0
vt 9.76934307479225 -26.917051939058187 0
vt 10.322074515235464 -26.917051939058187 0
vt 10.317641828254855 -26.347592382271486 0
vt 11.823576869806102 -26.35079376731304 0
vt 11.840410526315797 -7.397503739612193 0
vt 8.634751108033248 -7.397503739612193 0
vt 8.643194321329647 -5.524728670360115 0
vt 11.781360803324107 -5.524728670360115 0
vt 11.789786426592807 -5.339136288088646 0
vt 16.70046481994461 -5.3492857340720255 0
vt 16.706463019390593 -4.954917313019394 0
vt 17.52867368421054 -4.969112465373964 0
vt 17.51067908587259 -5.329162742382275 0
vt 24.009613850415526 -5.3471573407202255 0
vt 24.009613850415526 -5.059120637119117 0
vt 24.837717174515255 -5.077115235457067 0
vt 24.7837157894737 -5.311150554016623 0
vt 25.647843490304727 -5.3471573407202255 0
vn 0 0 1
vn 0 0 -1
usemtl floor_2
s off
f 119/60/1 117/59/1 121/61/1
f 122/61/2 118/59/2 120/60/2
f 123/62/1 121/61/1 125/63/1
f 126/63/2 122/61/2 124/62/2
f 5/3/1 3/2/1 9/5/1
f 10/5/2 4/2/2 6/3/2
f 5/3/1 9/5/1 7/4/1
f 8/4/2 10/5/2 6/3/2
f 11/6/1 9/5/1 13/7/1
f 14/7/2 10/5/2 12/6/2
f 15/8/1 13/7/1 17/9/1
f 18/9/2 14/7/2 16/8/2
f 99/50/1 97/49/1 101/51/1
f 102/51/2 98/49/2 100/50/2
f 101/51/1 97/49/1 103/52/1
f 104/52/2 98/49/2 102/51/2
f 105/53/1 103/52/1 109/55/1
f 110/55/2 104/52/2 106/53/2
f 105/53/1 109/55/1 107/54/1
f 108/54/2 110/55/2 106/53/2
f 117/59/1 115/58/1 121/61/1
f 122/61/2 116/58/2 118/59/2
f 121/61/1 115/58/1 125/63/1
f 126/63/2 116/58/2 122/61/2
f 125/63/1 115/58/1 131/66/1
f 132/66/2 116/58/2 126/63/2
f 125/63/1 131/66/1 127/64/1
f 128/64/2 132/66/2 126/63/2
f 127/64/1 131/66/1 129/65/1
f 130/65/2 132/66/2 128/64/2
f 1/1/1 141/71/1 3/2/1
f 4/2/2 142/71/2 2/1/2
f 3/2/1 141/71/1 9/5/1
f 10/5/2 142/71/2 4/2/2
f 9/5/1 141/71/1 19/10/1
f 20/10/2 142/71/2 10/5/2
f 9/5/1 19/10/1 13/7/1
f 14/7/2 20/10/2 10/5/2
f 13/7/1 19/10/1 17/9/1
f 18/9/2 20/10/2 14/7/2
f 51/26/1 49/25/1 53/27/1
f 54/27/2 50/25/2 52/26/2
f 53/27/1 49/25/1 55/28/1
f 56/28/2 50/25/2 54/27/2
f 63/32/1 61/31/1 67/34/1
f 68/34/2 62/31/2 64/32/2
f 63/32/1 67/34/1 65/33/1
f 66/33/2 68/34/2 64/32/2
f 79/40/1 77/39/1 83/42/1
f 84/42/2 78/39/2 80/40/2
f 79/40/1 83/42/1 81/41/1
f 82/41/2 84/42/2 80/40/2
f 91/46/1 89/45/1 93/47/1
f 94/47/2 90/45/2 92/46/2
f 95/48/1 93/47/1 97/49/1
f 98/49/2 94/47/2 96/48/2
f 97/49/1 93/47/1 113/57/1
f 114/57/2 94/47/2 98/49/2
f 97/49/1 113/57/1 103/52/1
f 104/52/2 114/57/2 98/49/2
f 103/52/1 113/57/1 109/55/1
f 110/55/2 114/57/2 104/52/2
f 109/55/1 113/57/1 111/56/1
f 112/56/2 114/57/2 110/55/2
f 115/58/1 113/57/1 89/45/1
f 90/45/2 114/57/2 116/58/2
f 115/58/1 89/45/1 131/66/1
f 132/66/2 90/45/2 116/58/2
f 131/66/1 89/45/1 87/44/1
f 88/44/2 90/45/2 132/66/2
f 131/66/1 87/44/1 35/18/1
f 36/18/2 88/44/2 132/66/2
f 131/66/1 35/18/1 133/67/1
f 134/67/2 36/18/2 132/66/2
f 133/67/1 35/18/1 139/70/1
f 140/70/2 36/18/2 134/67/2
f 133/67/1 139/70/1 135/68/1
f 136/68/2 140/70/2 134/67/2
f 135/68/1 139/70/1 137/69/1
f 138/69/2 140/70/2 136/68/2
f 141/71/1 139/70/1 35/18/1
f 36/18/2 140/70/2 142/71/2
f 141/71/1 35/18/1 21/11/1
f 22/11/2 36/18/2 142/71/2
f 141/71/1 21/11/1 19/10/1
f 20/10/2 22/11/2 142/71/2
f 23/12/1 21/11/1 25/13/1
f 26/13/2 22/11/2 24/12/2
f 25/13/1 21/11/1 27/14/1
f 28/14/2 22/11/2 26/13/2
f 39/20/1 37/19/1 43/22/1
f 44/22/2 38/19/2 40/20/2
f 39/20/1 43/22/1 41/21/1
f 42/21/2 44/22/2 40/20/2
f 47/24/1 45/23/1 49/25/1
f 50/25/2 46/23/2 48/24/2
f 49/25/1 45/23/1 55/28/1
f 56/28/2 46/23/2 50/25/2
f 55/28/1 45/23/1 75/38/1
f 76/38/2 46/23/2 56/28/2
f 55/28/1 75/38/1 57/29/1
f 58/29/2 76/38/2 56/28/2
f 57/29/1 75/38/1 61/31/1
f 62/31/2 76/38/2 58/29/2
f 57/29/1 61/31/1 59/30/1
f 60/30/2 62/31/2 58/29/2
f 61/31/1 75/38/1 73/37/1
f 74/37/2 76/38/2 62/31/2
f 61/31/1 73/37/1 67/34/1
f 68/34/2 74/37/2 62/31/2
f 67/34/1 73/37/1 71/36/1
f 72/36/2 74/37/2 68/34/2
f 67/34/1 71/36/1 69/35/1
f 70/35/2 72/36/2 68/34/2
f 77/39/1 75/38/1 43/22/1
f 44/22/2 76/38/2 78/39/2
f 77/39/1 43/22/1 37/19/1
f 38/19/2 44/22/2 78/39/2
f 77/39/1 37/19/1 35/18/1
f 36/18/2 38/19/2 78/39/2
f 77/39/1 35/18/1 83/42/1
f 84/42/2 36/18/2 78/39/2
f 83/42/1 35/18/1 87/44/1
f 88/44/2 36/18/2 84/42/2
f 83/42/1 87/44/1 85/43/1
f 86/43/2 88/44/2 84/42/2
f 43/22/1 75/38/1 45/23/1
f 46/23/2 76/38/2 44/22/2
f 35/18/1 33/17/1 31/16/1
f 32/16/2 34/17/2 36/18/2
f 35/18/1 31/16/1 27/14/1
f 28/14/2 32/16/2 36/18/2
f 35/18/1 27/14/1 21/11/1
f 22/11/2 28/14/2 36/18/2
f 27/14/1 31/16/1 29/15/1
f 30/15/2 32/16/2 28/14/2
f 89/45/1 113/57/1 93/47/1
f 94/47/2 114/57/2 90/45/2
