# The Great Editor v0.0.1
mtllib wall_2.mtl
o walls
v 16.7741 16.8570 0.000
v 16.7741 16.8570 2.5000
v 16.7651 16.1200 0.000
v 16.7651 16.1200 2.5000
v 16.6651 16.1213 0.000
v 16.6651 16.1213 2.5000
v 16.6741 16.8582 0.000
v 16.6741 16.8582 2.5000
v 16.6651 16.2201 0.000
v 16.6651 16.2201 2.5000
v 17.3144 16.2270 0.000
v 17.3144 16.2270 2.5000
v 17.3155 16.1270 0.000
v 17.3155 16.1270 2.5000
v 16.6662 16.1201 0.000
v 16.6662 16.1201 2.5000
v 17.2149 16.1265 0.000
v 17.2149 16.1265 2.5000
v 17.2149 16.8576 0.000
v 17.2149 16.8576 2.5000
v 17.3149 16.8576 0.000
v 17.3149 16.8576 2.5000
v 17.3149 16.1265 0.000
v 17.3149 16.1265 2.5000
v 17.3149 16.7576 0.000
v 17.3149 16.7576 2.5000
v 16.6735 16.7576 0.000
v 16.6735 16.7576 2.5000
v 16.6735 16.8576 0.000
v 16.6735 16.8576 2.5000
v 17.3149 16.8576 0.000
v 17.3149 16.8576 2.5000
v 16.7676 9.7303 0.000
v 16.7676 9.7303 2.5000
v 16.7676 8.9430 0.000
v 16.7676 8.9430 2.5000
v 16.6676 8.9430 0.000
v 16.6676 8.9430 2.5000
v 16.6676 9.7303 0.000
v 16.6676 9.7303 2.5000
v 16.6677 9.7304 0.000
v 16.6677 9.7304 2.5000
v 17.5682 9.7286 0.000
v 17.5682 9.7286 2.5000
v 17.5680 9.6286 0.000
v 17.5680 9.6286 2.5000
v 16.6675 9.6304 0.000
v 16.6675 9.6304 2.5000
v 17.5684 9.7284 0.000
v 17.5684 9.7284 2.5000
v 17.5628 8.9465 0.000
v 17.5628 8.9465 2.5000
v 17.4628 8.9472 0.000
v 17.4628 8.9472 2.5000
v 17.4685 9.7291 0.000
v 17.4685 9.7291 2.5000
v 20.2949 21.4693 0.000
v 20.2949 21.4693 2.5000
v 20.2982 23.5438 0.000
v 20.2982 23.5438 2.5000
v 20.3982 23.5436 0.000
v 20.3982 23.5436 2.5000
v 20.3949 21.4691 0.000
v 20.3949 21.4691 2.5000
v 20.3982 23.4437 0.000
v 20.3982 23.4437 2.5000
v 12.0759 23.4393 0.000
v 12.0759 23.4393 2.5000
v 12.0758 23.5393 0.000
v 12.0758 23.5393 2.5000
v 20.3981 23.5437 0.000
v 20.3981 23.5437 2.5000
v 12.1758 23.5393 0.000
v 12.1758 23.5393 2.5000
v 12.1758 23.1925 0.000
v 12.1758 23.1925 2.5000
v 12.0758 23.1925 0.000
v 12.0758 23.1925 2.5000
v 12.0758 23.5393 0.000
v 12.0758 23.5393 2.5000
v 12.1758 23.1925 0.000
v 12.1758 23.1925 2.5000
v 10.4448 23.1925 0.000
v 10.4448 23.1925 2.5000
v 10.4448 23.2925 0.000
v 10.4448 23.2925 2.5000
v 12.1758 23.2925 0.000
v 12.1758 23.2925 2.5000
v 10.4448 23.1925 0.000
v 10.4448 23.1925 2.5000
v 10.4448 23.5608 0.000
v 10.4448 23.5608 2.5000
v 10.5448 23.5608 0.000
v 10.5448 23.5608 2.5000
v 10.5448 23.1925 0.000
v 10.5448 23.1925 2.5000
v 10.5452 23.4612 0.000
v 10.5452 23.4612 2.5000
v 5.5736 23.4174 0.000
v 5.5736 23.4174 2.5000
v 5.5727 23.5174 0.000
v 5.5727 23.5174 2.5000
v 10.5444 23.5612 0.000
v 10.5444 23.5612 2.5000
v 5.6733 23.5177 0.000
v 5.6733 23.5177 2.5000
v 5.6622 19.9517 0.000
v 5.6622 19.9517 2.5000
v 5.5622 19.9520 0.000
v 5.5622 19.9520 2.5000
v 5.5733 23.5180 0.000
v 5.5733 23.5180 2.5000
v 5.6624 19.9519 0.000
v 5.6624 19.9519 2.5000
v 5.1653 19.9519 0.000
v 5.1653 19.9519 2.5000
v 5.1653 20.0519 0.000
v 5.1653 20.0519 2.5000
v 5.6624 20.0519 0.000
v 5.6624 20.0519 2.5000
v 5.2653 20.0519 0.000
v 5.2653 20.0519 2.5000
v 5.2651 8.6681 0.000
v 5.2651 8.6681 2.5000
v 5.1651 8.6681 0.000
v 5.1651 8.6681 2.5000
v 5.1653 20.0519 0.000
v 5.1653 20.0519 2.5000
v 5.1636 8.7666 0.000
v 5.1636 8.7666 2.5000
v 5.8039 8.7854 0.000
v 5.8039 8.7854 2.5000
v 5.8069 8.6855 0.000
v 5.8069 8.6855 2.5000
v 5.1666 8.6666 0.000
v 5.1666 8.6666 2.5000
v 5.8058 8.7836 0.000
v 5.8058 8.7836 2.5000
v 5.7892 6.4111 0.000
v 5.7892 6.4111 2.5000
v 5.6892 6.4118 0.000
v 5.6892 6.4118 2.5000
v 5.7058 8.7843 0.000
v 5.7058 8.7843 2.5000
v 5.7911 6.4131 0.000
v 5.7911 6.4131 2.5000
v 5.1985 6.3939 0.000
v 5.1985 6.3939 2.5000
v 5.1953 6.4939 0.000
v 5.1953 6.4939 2.5000
v 5.7879 6.5130 0.000
v 5.7879 6.5130 2.5000
v 5.2975 6.4949 0.000
v 5.2975 6.4949 2.5000
v 5.2773 4.8112 0.000
v 5.2773 4.8112 2.5000
v 5.1773 4.8124 0.000
v 5.1773 4.8124 2.5000
v 5.1975 6.4961 0.000
v 5.1975 6.4961 2.5000
v 5.1799 4.9137 0.000
v 5.1799 4.9137 2.5000
v 5.7362 4.8923 0.000
v 5.7362 4.8923 2.5000
v 5.7324 4.7923 0.000
v 5.7324 4.7923 2.5000
v 5.1760 4.8137 0.000
v 5.1760 4.8137 2.5000
v 5.7365 4.8919 0.000
v 5.7365 4.8919 2.5000
v 5.7145 4.4058 0.000
v 5.7145 4.4058 2.5000
v 5.6146 4.4103 0.000
v 5.6146 4.4103 2.5000
v 5.6367 4.8964 0.000
v 5.6367 4.8964 2.5000
v 5.6167 4.5079 0.000
v 5.6167 4.5079 2.5000
v 20.4127 4.5260 0.000
v 20.4127 4.5260 2.5000
v 20.4129 4.4260 0.000
v 20.4129 4.4260 2.5000
v 5.6168 4.4079 0.000
v 5.6168 4.4079 2.5000
v 20.3150 4.4238 0.000
v 20.3150 4.4238 2.5000
v 20.2962 4.8540 0.000
v 20.2962 4.8540 2.5000
v 20.3961 4.8583 0.000
v 20.3961 4.8583 2.5000
v 20.4149 4.4282 0.000
v 20.4149 4.4282 2.5000
v 20.4045 4.7633 0.000
v 20.4045 4.7633 2.5000
v 20.1716 4.7322 0.000
v 20.1716 4.7322 2.5000
v 20.1584 4.8313 0.000
v 20.1584 4.8313 2.5000
v 20.3913 4.8624 0.000
v 20.3913 4.8624 2.5000
v 20.1641 4.7388 0.000
v 20.1641 4.7388 2.5000
v 20.1739 5.8825 0.000
v 20.1739 5.8825 2.5000
v 20.2739 5.8816 0.000
v 20.2739 5.8816 2.5000
v 20.2641 4.7379 0.000
v 20.2641 4.7379 2.5000
v 20.1735 5.8820 0.000
v 20.1735 5.8820 2.5000
v 20.7195 5.8820 0.000
v 20.7195 5.8820 2.5000
v 20.7195 5.7820 0.000
v 20.7195 5.7820 2.5000
v 20.1735 5.7820 0.000
v 20.1735 5.7820 2.5000
v 20.6193 5.7822 0.000
v 20.6193 5.7822 2.5000
v 20.6283 8.2684 0.000
v 20.6283 8.2684 2.5000
v 20.7283 8.2680 0.000
v 20.7283 8.2680 2.5000
v 20.7193 5.7819 0.000
v 20.7193 5.7819 2.5000
v 20.7281 8.1682 0.000
v 20.7281 8.1682 2.5000
v 20.2779 8.1682 0.000
v 20.2779 8.1682 2.5000
v 20.2779 8.2682 0.000
v 20.2779 8.2682 2.5000
v 20.7281 8.2682 0.000
v 20.7281 8.2682 2.5000
v 20.2779 8.1682 0.000
v 20.2779 8.1682 2.5000
v 20.2775 8.9675 0.000
v 20.2775 8.9675 2.5000
v 20.3775 8.9675 0.000
v 20.3775 8.9675 2.5000
v 20.3779 8.1682 0.000
v 20.3779 8.1682 2.5000
v 17.1112 25.4441 0.000
v 17.1112 25.4441 2.5000
v 16.1472 25.4843 0.000
v 16.1472 25.4843 2.5000
v 16.1513 25.5842 0.000
v 16.1513 25.5842 2.5000
v 17.1154 25.5440 0.000
v 17.1154 25.5440 2.5000
v 16.1392 25.4947 0.000
v 16.1392 25.4947 2.5000
v 16.2157 25.8261 0.000
v 16.2157 25.8261 2.5000
v 16.3132 25.8036 0.000
v 16.3132 25.8036 2.5000
v 16.2367 25.4722 0.000
v 16.2367 25.4722 2.5000
v 16.3021 25.7151 0.000
v 16.3021 25.7151 2.5000
v 15.3740 25.7353 0.000
v 15.3740 25.7353 2.5000
v 15.3762 25.8352 0.000
v 15.3762 25.8352 2.5000
v 16.3043 25.8151 0.000
v 16.3043 25.8151 2.5000
v 15.4751 25.8342 0.000
v 15.4751 25.8342 2.5000
v 15.4751 25.4461 0.000
v 15.4751 25.4461 2.5000
v 15.3751 25.4461 0.000
v 15.3751 25.4461 2.5000
v 15.3751 25.8342 0.000
v 15.3751 25.8342 2.5000
v 15.4749 25.4460 0.000
v 15.4749 25.4460 2.5000
v 8.8760 25.4643 0.000
v 8.8760 25.4643 2.5000
v 8.8763 25.5643 0.000
v 8.8763 25.5643 2.5000
v 15.4752 25.5460 0.000
v 15.4752 25.5460 2.5000
v 8.8737 25.4667 0.000
v 8.8737 25.4667 2.5000
v 8.8967 25.9266 0.000
v 8.8967 25.9266 2.5000
v 8.9966 25.9216 0.000
v 8.9966 25.9216 2.5000
v 8.9736 25.4617 0.000
v 8.9736 25.4617 2.5000
v 8.9933 25.8233 0.000
v 8.9933 25.8233 2.5000
v 8.0711 25.8392 0.000
v 8.0711 25.8392 2.5000
v 8.0728 25.9392 0.000
v 8.0728 25.9392 2.5000
v 8.9950 25.9233 0.000
v 8.9950 25.9233 2.5000
v 8.1727 25.9376 0.000
v 8.1727 25.9376 2.5000
v 8.1652 25.4432 0.000
v 8.1652 25.4432 2.5000
v 8.0652 25.4448 0.000
v 8.0652 25.4448 2.5000
v 8.0727 25.9391 0.000
v 8.0727 25.9391 2.5000
v 8.1658 25.4439 0.000
v 8.1658 25.4439 2.5000
v 3.1552 25.4543 0.000
v 3.1552 25.4543 2.5000
v 3.1554 25.5543 0.000
v 3.1554 25.5543 2.5000
v 8.1660 25.5439 0.000
v 8.1660 25.5439 2.5000
v 3.2575 25.5518 0.000
v 3.2575 25.5518 2.5000
v 3.2445 25.2663 0.000
v 3.2445 25.2663 2.5000
v 3.1446 25.2709 0.000
v 3.1446 25.2709 2.5000
v 3.1576 25.5564 0.000
v 3.1576 25.5564 2.5000
v 3.2468 25.2686 0.000
v 3.2468 25.2686 2.5000
v 0.0087 25.2686 0.000
v 0.0087 25.2686 2.5000
v 0.0087 25.3686 0.000
v 0.0087 25.3686 2.5000
v 3.2468 25.3686 0.000
v 3.2468 25.3686 2.5000
v 0.1089 25.3683 0.000
v 0.1089 25.3683 2.5000
v 0.1000 23.3956 0.000
v 0.1000 23.3956 2.5000
v 0.0000 23.3960 0.000
v 0.0000 23.3960 2.5000
v 0.0089 25.3688 0.000
v 0.0089 25.3688 2.5000
v 0.0002 23.4958 0.000
v 0.0002 23.4958 2.5000
v 3.3059 23.4958 0.000
v 3.3059 23.4958 2.5000
v 3.3059 23.3958 0.000
v 3.3059 23.3958 2.5000
v 0.0002 23.3958 0.000
v 0.0002 23.3958 2.5000
v 3.3059 23.4957 0.000
v 3.3059 23.4957 2.5000
v 3.2890 4.4424 0.000
v 3.2890 4.4424 2.5000
v 3.1890 4.4425 0.000
v 3.1890 4.4425 2.5000
v 3.2059 23.4958 0.000
v 3.2059 23.4958 2.5000
v 3.2889 4.4424 0.000
v 3.2889 4.4424 2.5000
v 1.6830 4.4458 0.000
v 1.6830 4.4458 2.5000
v 1.6832 4.5458 0.000
v 1.6832 4.5458 2.5000
v 3.2892 4.5424 0.000
v 3.2892 4.5424 2.5000
v 1.7827 4.5461 0.000
v 1.7827 4.5461 2.5000
v 1.7879 3.8766 0.000
v 1.7879 3.8766 2.5000
v 1.6879 3.8758 0.000
v 1.6879 3.8758 2.5000
v 1.6827 4.5453 0.000
v 1.6827 4.5453 2.5000
v 1.7875 3.8762 0.000
v 1.7875 3.8762 2.5000
v 1.1348 3.8762 0.000
v 1.1348 3.8762 2.5000
v 1.1348 3.9762 0.000
v 1.1348 3.9762 2.5000
v 1.7875 3.9762 0.000
v 1.7875 3.9762 2.5000
v 1.2344 3.9767 0.000
v 1.2344 3.9767 2.5000
v 1.2461 2.5978 0.000
v 1.2461 2.5978 2.5000
v 1.1461 2.5969 0.000
v 1.1461 2.5969 2.5000
v 1.1344 3.9758 0.000
v 1.1344 3.9758 2.5000
v 1.1457 2.6973 0.000
v 1.1457 2.6973 2.5000
v 3.2615 2.6973 0.000
v 3.2615 2.6973 2.5000
v 3.2615 2.5973 0.000
v 3.2615 2.5973 2.5000
v 1.1457 2.5973 0.000
v 1.1457 2.5973 2.5000
v 3.2615 2.6973 0.000
v 3.2615 2.6973 2.5000
v 3.2593 0.0006 0.000
v 3.2593 0.0006 2.5000
v 3.1593 0.0007 0.000
v 3.1593 0.0007 2.5000
v 3.1615 2.6974 0.000
v 3.1615 2.6974 2.5000
v 3.1587 0.1000 0.000
v 3.1587 0.1000 2.5000
v 5.1630 0.1258 0.000
v 5.1630 0.1258 2.5000
v 5.1643 0.0258 0.000
v 5.1643 0.0258 2.5000
v 3.1600 0.0000 0.000
v 3.1600 0.0000 2.5000
v 5.0637 0.0252 0.000
v 5.0637 0.0252 2.5000
v 5.0637 2.3728 0.000
v 5.0637 2.3728 2.5000
v 5.1637 2.3728 0.000
v 5.1637 2.3728 2.5000
v 5.1637 0.0252 0.000
v 5.1637 0.0252 2.5000
v 5.0637 2.3728 0.000
v 5.0637 2.3728 2.5000
v 5.6132 2.3728 0.000
v 5.6132 2.3728 2.5000
v 5.6132 2.2728 0.000
v 5.6132 2.2728 2.5000
v 5.0637 2.2728 0.000
v 5.0637 2.2728 2.5000
v 5.5132 2.2728 0.000
v 5.5132 2.2728 2.5000
v 5.5132 2.6588 0.000
v 5.5132 2.6588 2.5000
v 5.6132 2.6588 0.000
v 5.6132 2.6588 2.5000
v 5.6132 2.2728 0.000
v 5.6132 2.2728 2.5000
v 5.5136 2.6593 0.000
v 5.5136 2.6593 2.5000
v 10.0397 2.6218 0.000
v 10.0397 2.6218 2.5000
v 10.0389 2.5218 0.000
v 10.0389 2.5218 2.5000
v 5.5128 2.5593 0.000
v 5.5128 2.5593 2.5000
v 9.9375 2.5241 0.000
v 9.9375 2.5241 2.5000
v 9.9494 2.8460 0.000
v 9.9494 2.8460 2.5000
v 10.0493 2.8423 0.000
v 10.0493 2.8423 2.5000
v 10.0374 2.5204 0.000
v 10.0374 2.5204 2.5000
v 9.9462 2.8428 0.000
v 9.9462 2.8428 2.5000
v 10.3667 2.8536 0.000
v 10.3667 2.8536 2.5000
v 10.3693 2.7537 0.000
v 10.3693 2.7537 2.5000
v 9.9488 2.7429 0.000
v 9.9488 2.7429 2.5000
v 10.3680 2.8524 0.000
v 10.3680 2.8524 2.5000
v 10.3680 2.5305 0.000
v 10.3680 2.5305 2.5000
v 10.2680 2.5305 0.000
v 10.2680 2.5305 2.5000
v 10.2680 2.8524 0.000
v 10.2680 2.8524 2.5000
v 10.2677 2.6302 0.000
v 10.2677 2.6302 2.5000
v 11.8963 2.6390 0.000
v 11.8963 2.6390 2.5000
v 11.8968 2.5390 0.000
v 11.8968 2.5390 2.5000
v 10.2683 2.5302 0.000
v 10.2683 2.5302 2.5000
v 11.8962 2.6391 0.000
v 11.8962 2.6391 2.5000
v 11.9052 1.4872 0.000
v 11.9052 1.4872 2.5000
v 11.8052 1.4864 0.000
v 11.8052 1.4864 2.5000
v 11.7962 2.6383 0.000
v 11.7962 2.6383 2.5000
v 11.8048 1.5868 0.000
v 11.8048 1.5868 2.5000
v 14.0661 1.5868 0.000
v 14.0661 1.5868 2.5000
v 14.0661 1.4868 0.000
v 14.0661 1.4868 2.5000
v 11.8048 1.4868 0.000
v 11.8048 1.4868 2.5000
v 13.9654 1.4875 0.000
v 13.9654 1.4875 2.5000
v 13.9834 2.6477 0.000
v 13.9834 2.6477 2.5000
v 14.0833 2.6461 0.000
v 14.0833 2.6461 2.5000
v 14.0654 1.4860 0.000
v 14.0654 1.4860 2.5000
v 13.9827 2.6470 0.000
v 13.9827 2.6470 2.5000
v 20.4088 2.6313 0.000
v 20.4088 2.6313 2.5000
v 20.4085 2.5313 0.000
v 20.4085 2.5313 2.5000
v 13.9825 2.5470 0.000
v 13.9825 2.5470 2.5000
v 20.4093 2.6308 0.000
v 20.4093 2.6308 2.5000
v 20.4039 2.2152 0.000
v 20.4039 2.2152 2.5000
v 20.3039 2.2165 0.000
v 20.3039 2.2165 2.5000
v 20.3093 2.6321 0.000
v 20.3093 2.6321 2.5000
v 20.4081 2.2197 0.000
v 20.4081 2.2197 2.5000
v 20.0343 2.1914 0.000
v 20.0343 2.1914 2.5000
v 20.0268 2.2911 0.000
v 20.0268 2.2911 2.5000
v 20.4006 2.3194 0.000
v 20.4006 2.3194 2.5000
v 20.1298 2.2956 0.000
v 20.1298 2.2956 2.5000
v 20.1393 1.4564 0.000
v 20.1393 1.4564 2.5000
v 20.0393 1.4553 0.000
v 20.0393 1.4553 2.5000
v 20.0299 2.2945 0.000
v 20.0299 2.2945 2.5000
v 20.0387 1.5558 0.000
v 20.0387 1.5558 2.5000
v 20.4336 1.5558 0.000
v 20.4336 1.5558 2.5000
v 20.4336 1.4558 0.000
v 20.4336 1.4558 2.5000
v 20.0387 1.4558 0.000
v 20.0387 1.4558 2.5000
v 20.4331 1.5563 0.000
v 20.4331 1.5563 2.5000
v 20.4447 0.3405 0.000
v 20.4447 0.3405 2.5000
v 20.3448 0.3396 0.000
v 20.3448 0.3396 2.5000
v 20.3331 1.5553 0.000
v 20.3331 1.5553 2.5000
v 20.3433 0.4390 0.000
v 20.3433 0.4390 2.5000
v 23.6039 0.5051 0.000
v 23.6039 0.5051 2.5000
v 23.6060 0.4051 0.000
v 23.6060 0.4051 2.5000
v 20.3453 0.3390 0.000
v 20.3453 0.3390 2.5000
v 23.5050 0.4041 0.000
v 23.5050 0.4041 2.5000
v 23.5050 1.6787 0.000
v 23.5050 1.6787 2.5000
v 23.6050 1.6787 0.000
v 23.6050 1.6787 2.5000
v 23.6050 0.4041 0.000
v 23.6050 0.4041 2.5000
v 23.5006 1.6740 0.000
v 23.5006 1.6740 2.5000
v 23.8352 1.7044 0.000
v 23.8352 1.7044 2.5000
v 23.8442 1.6048 0.000
v 23.8442 1.6048 2.5000
v 23.5097 1.5744 0.000
v 23.5097 1.5744 2.5000
v 23.7403 1.5996 0.000
v 23.7403 1.5996 2.5000
v 23.7333 2.4266 0.000
v 23.7333 2.4266 2.5000
v 23.8333 2.4275 0.000
v 23.8333 2.4275 2.5000
v 23.8403 1.6005 0.000
v 23.8403 1.6005 2.5000
v 23.7207 2.3449 0.000
v 23.7207 2.3449 2.5000
v 23.8204 2.6528 0.000
v 23.8204 2.6528 2.5000
v 23.9156 2.6220 0.000
v 23.9156 2.6220 2.5000
v 23.8159 2.3141 0.000
v 23.8159 2.3141 2.5000
v 23.8023 2.6395 0.000
v 23.8023 2.6395 2.5000
v 24.7138 2.6448 0.000
v 24.7138 2.6448 2.5000
v 24.7144 2.5448 0.000
v 24.7144 2.5448 2.5000
v 23.8029 2.5395 0.000
v 23.8029 2.5395 2.5000
v 24.6141 2.5445 0.000
v 24.6141 2.5445 2.5000
v 24.6141 4.7616 0.000
v 24.6141 4.7616 2.5000
v 24.7141 4.7616 0.000
v 24.7141 4.7616 2.5000
v 24.7141 2.5445 0.000
v 24.7141 2.5445 2.5000
v 24.7147 4.6622 0.000
v 24.7147 4.6622 2.5000
v 23.7850 4.6508 0.000
v 23.7850 4.6508 2.5000
v 23.7837 4.7508 0.000
v 23.7837 4.7508 2.5000
v 24.7135 4.7622 0.000
v 24.7135 4.7622 2.5000
v 23.7830 4.6528 0.000
v 23.7830 4.6528 2.5000
v 23.7926 4.9986 0.000
v 23.7926 4.9986 2.5000
v 23.8925 4.9958 0.000
v 23.8925 4.9958 2.5000
v 23.8829 4.6500 0.000
v 23.8829 4.6500 2.5000
v 23.8907 4.8968 0.000
v 23.8907 4.8968 2.5000
v 23.4356 4.9011 0.000
v 23.4356 4.9011 2.5000
v 23.4365 5.0011 0.000
v 23.4365 5.0011 2.5000
v 23.8916 4.9968 0.000
v 23.8916 4.9968 2.5000
v 23.4361 4.9006 0.000
v 23.4361 4.9006 2.5000
v 23.4299 9.0170 0.000
v 23.4299 9.0170 2.5000
v 23.5299 9.0171 0.000
v 23.5299 9.0171 2.5000
v 23.5361 4.9007 0.000
v 23.5361 4.9007 2.5000
v 23.4293 9.0164 0.000
v 23.4293 9.0164 2.5000
v 23.8301 9.0216 0.000
v 23.8301 9.0216 2.5000
v 23.8314 8.9216 0.000
v 23.8314 8.9216 2.5000
v 23.4306 8.9164 0.000
v 23.4306 8.9164 2.5000
v 23.7297 8.9221 0.000
v 23.7297 8.9221 2.5000
v 23.7475 9.7252 0.000
v 23.7475 9.7252 2.5000
v 23.8475 9.7230 0.000
v 23.8475 9.7230 2.5000
v 23.8296 8.9198 0.000
v 23.8296 8.9198 2.5000
v 23.8446 9.6224 0.000
v 23.8446 9.6224 2.5000
v 23.4126 9.6377 0.000
v 23.4126 9.6377 2.5000
v 23.4161 9.7376 0.000
v 23.4161 9.7376 2.5000
v 23.8481 9.7223 0.000
v 23.8481 9.7223 2.5000
v 23.4141 9.6361 0.000
v 23.4141 9.6361 2.5000
v 23.4503 16.1632 0.000
v 23.4503 16.1632 2.5000
v 23.5503 16.1627 0.000
v 23.5503 16.1627 2.5000
v 23.5140 9.6356 0.000
v 23.5140 9.6356 2.5000
v 23.4467 16.1594 0.000
v 23.4467 16.1594 2.5000
v 23.8464 16.1870 0.000
v 23.8464 16.1870 2.5000
v 23.8533 16.0872 0.000
v 23.8533 16.0872 2.5000
v 23.4536 16.0596 0.000
v 23.4536 16.0596 2.5000
v 23.7501 16.0836 0.000
v 23.7501 16.0836 2.5000
v 23.7488 17.0239 0.000
v 23.7488 17.0239 2.5000
v 23.8488 17.0241 0.000
v 23.8488 17.0241 2.5000
v 23.8501 16.0837 0.000
v 23.8501 16.0837 2.5000
v 23.7488 17.0240 0.000
v 23.7488 17.0240 2.5000
v 23.9611 17.0240 0.000
v 23.9611 17.0240 2.5000
v 23.9611 16.9240 0.000
v 23.9611 16.9240 2.5000
v 23.7488 16.9240 0.000
v 23.7488 16.9240 2.5000
v 23.8622 16.9229 0.000
v 23.8622 16.9229 2.5000
v 23.8413 17.8952 0.000
v 23.8413 17.8952 2.5000
v 23.9413 17.8973 0.000
v 23.9413 17.8973 2.5000
v 23.9622 16.9251 0.000
v 23.9622 16.9251 2.5000
v 23.8424 17.8963 0.000
v 23.8424 17.8963 2.5000
v 24.0921 17.8963 0.000
v 24.0921 17.8963 2.5000
v 24.0921 17.7963 0.000
v 24.0921 17.7963 2.5000
v 23.8424 17.7963 0.000
v 23.8424 17.7963 2.5000
v 23.9931 17.7954 0.000
v 23.9931 17.7954 2.5000
v 23.9763 18.7114 0.000
v 23.9763 18.7114 2.5000
v 24.0762 18.7133 0.000
v 24.0762 18.7133 2.5000
v 24.0931 17.7972 0.000
v 24.0931 17.7972 2.5000
v 24.0790 18.6143 0.000
v 24.0790 18.6143 2.5000
v 23.8412 18.6052 0.000
v 23.8412 18.6052 2.5000
v 23.8373 18.7051 0.000
v 23.8373 18.7051 2.5000
v 24.0752 18.7142 0.000
v 24.0752 18.7142 2.5000
v 23.8399 18.6064 0.000
v 23.8399 18.6064 2.5000
v 23.8322 19.1961 0.000
v 23.8322 19.1961 2.5000
v 23.9322 19.1974 0.000
v 23.9322 19.1974 2.5000
v 23.9399 18.6077 0.000
v 23.9399 18.6077 2.5000
v 23.8353 19.1991 0.000
v 23.8353 19.1991 2.5000
v 24.1098 19.1858 0.000
v 24.1098 19.1858 2.5000
v 24.1049 19.0859 0.000
v 24.1049 19.0859 2.5000
v 23.8305 19.0993 0.000
v 23.8305 19.0993 2.5000
v 24.0068 19.0889 0.000
v 24.0068 19.0889 2.5000
v 24.0187 20.0468 0.000
v 24.0187 20.0468 2.5000
v 24.1187 20.0456 0.000
v 24.1187 20.0456 2.5000
v 24.1068 19.0876 0.000
v 24.1068 19.0876 2.5000
v 24.1150 19.9433 0.000
v 24.1150 19.9433 2.5000
v 23.8384 19.9600 0.000
v 23.8384 19.9600 2.5000
v 23.8444 20.0598 0.000
v 23.8444 20.0598 2.5000
v 24.1210 20.0431 0.000
v 24.1210 20.0431 2.5000
v 23.8416 19.9566 0.000
v 23.8416 19.9566 2.5000
v 23.8111 25.3140 0.000
v 23.8111 25.3140 2.5000
v 23.9111 25.3146 0.000
v 23.9111 25.3146 2.5000
v 23.9416 19.9572 0.000
v 23.9416 19.9572 2.5000
v 23.8108 25.3137 0.000
v 23.8108 25.3137 2.5000
v 24.6409 25.3238 0.000
v 24.6409 25.3238 2.5000
v 24.6421 25.2238 0.000
v 24.6421 25.2238 2.5000
v 23.8120 25.2137 0.000
v 23.8120 25.2137 2.5000
v 24.5415 25.2232 0.000
v 24.5415 25.2232 2.5000
v 24.5415 26.2602 0.000
v 24.5415 26.2602 2.5000
v 24.6415 26.2602 0.000
v 24.6415 26.2602 2.5000
v 24.6415 25.2232 0.000
v 24.6415 25.2232 2.5000
v 24.6419 26.1606 0.000
v 24.6419 26.1606 2.5000
v 23.8029 26.1539 0.000
v 23.8029 26.1539 2.5000
v 23.8021 26.2539 0.000
v 23.8021 26.2539 2.5000
v 24.6411 26.2606 0.000
v 24.6411 26.2606 2.5000
v 23.8028 26.1540 0.000
v 23.8028 26.1540 2.5000
v 23.7974 27.0689 0.000
v 23.7974 27.0689 2.5000
v 23.8974 27.0695 0.000
v 23.8974 27.0695 2.5000
v 23.9028 26.1546 0.000
v 23.9028 26.1546 2.5000
v 23.8976 26.9691 0.000
v 23.8976 26.9691 2.5000
v 18.3194 26.9801 0.000
v 18.3194 26.9801 2.5000
v 18.3196 27.0801 0.000
v 18.3196 27.0801 2.5000
v 23.8978 27.0691 0.000
v 23.8978 27.0691 2.5000
v 18.3209 26.9787 0.000
v 18.3209 26.9787 2.5000
v 18.3119 27.3115 0.000
v 18.3119 27.3115 2.5000
v 18.4119 27.3142 0.000
v 18.4119 27.3142 2.5000
v 18.4209 26.9814 0.000
v 18.4209 26.9814 2.5000
v 18.4132 27.2129 0.000
v 18.4132 27.2129 2.5000
v 17.4823 27.2129 0.000
v 17.4823 27.2129 2.5000
v 17.4823 27.3129 0.000
v 17.4823 27.3129 2.5000
v 18.4132 27.3129 0.000
v 18.4132 27.3129 2.5000
v 17.5835 27.3117 0.000
v 17.5835 27.3117 2.5000
v 17.5749 26.9411 0.000
v 17.5749 26.9411 2.5000
v 17.4749 26.9434 0.000
v 17.4749 26.9434 2.5000
v 17.4835 27.3141 0.000
v 17.4835 27.3141 2.5000
v 17.5760 26.9422 0.000
v 17.5760 26.9422 2.5000
v 16.9913 26.9422 0.000
v 16.9913 26.9422 2.5000
v 16.9913 27.0422 0.000
v 16.9913 27.0422 2.5000
v 17.5760 27.0422 0.000
v 17.5760 27.0422 2.5000
v 17.0906 27.0430 0.000
v 17.0906 27.0430 2.5000
v 17.1140 25.4469 0.000
v 17.1140 25.4469 2.5000
v 17.0141 25.4454 0.000
v 17.0141 25.4454 2.5000
v 16.9906 27.0415 0.000
v 16.9906 27.0415 2.5000
vt 0.000 0.000
vt 0.000 1.0000
vt 0.6370 0.000
vt 0.6370 1.0000
vt 0.7370 0.000
vt 0.7370 1.0000
vt 1.3739 0.000
vt 1.3739 1.0000
vt 0.000 0.000
vt 0.000 1.0000
vt 0.5493 0.000
vt 0.5493 1.0000
vt 0.6493 0.000
vt 0.6493 1.0000
vt 1.1986 0.000
vt 1.1986 1.0000
vt 0.000 0.000
vt 0.000 1.0000
vt 0.6311 0.000
vt 0.6311 1.0000
vt 0.7311 0.000
vt 0.7311 1.0000
vt 1.3622 0.000
vt 1.3622 1.0000
vt 0.000 0.000
vt 0.000 1.0000
vt 0.5415 0.000
vt 0.5415 1.0000
vt 0.6415 0.000
vt 0.6415 1.0000
vt 1.1829 0.000
vt 1.1829 1.0000
vt 0.000 0.000
vt 0.000 1.0000
vt 0.6873 0.000
vt 0.6873 1.0000
vt 0.7873 0.000
vt 0.7873 1.0000
vt 1.4746 0.000
vt 1.4746 1.0000
vt 0.000 0.000
vt 0.000 1.0000
vt 0.8005 0.000
vt 0.8005 1.0000
vt 0.9005 0.000
vt 0.9005 1.0000
vt 1.7010 0.000
vt 1.7010 1.0000
vt 0.000 0.000
vt 0.000 1.0000
vt 0.6819 0.000
vt 0.6819 1.0000
vt 0.7819 0.000
vt 0.7819 1.0000
vt 1.4637 0.000
vt 1.4637 1.0000
vt 0.000 0.000
vt 0.000 1.0000
vt 1.9745 0.000
vt 1.9745 1.0000
vt 2.0745 0.000
vt 2.0745 1.0000
vt 4.0490 0.000
vt 4.0490 1.0000
vt 0.000 0.000
vt 0.000 1.0000
vt 8.2223 0.000
vt 8.2223 1.0000
vt 8.3223 0.000
vt 8.3223 1.0000
vt 16.5447 0.000
vt 16.5447 1.0000
vt 0.000 0.000
vt 0.000 1.0000
vt 0.2468 0.000
vt 0.2468 1.0000
vt 0.3468 0.000
vt 0.3468 1.0000
vt 0.5936 0.000
vt 0.5936 1.0000
vt 0.000 0.000
vt 0.000 1.0000
vt 1.6310 0.000
vt 1.6310 1.0000
vt 1.7310 0.000
vt 1.7310 1.0000
vt 3.3621 0.000
vt 3.3621 1.0000
vt 0.000 0.000
vt 0.000 1.0000
vt 0.2683 0.000
vt 0.2683 1.0000
vt 0.3683 0.000
vt 0.3683 1.0000
vt 0.6365 0.000
vt 0.6365 1.0000
vt 0.000 0.000
vt 0.000 1.0000
vt 4.8719 0.000
vt 4.8719 1.0000
vt 4.9719 0.000
vt 4.9719 1.0000
vt 9.8437 0.000
vt 9.8437 1.0000
vt 0.000 0.000
vt 0.000 1.0000
vt 3.4660 0.000
vt 3.4660 1.0000
vt 3.5660 0.000
vt 3.5660 1.0000
vt 7.0320 0.000
vt 7.0320 1.0000
vt 0.000 0.000
vt 0.000 1.0000
vt 0.3970 0.000
vt 0.3970 1.0000
vt 0.4970 0.000
vt 0.4970 1.0000
vt 0.8941 0.000
vt 0.8941 1.0000
vt 0.000 0.000
vt 0.000 1.0000
vt 11.2838 0.000
vt 11.2838 1.0000
vt 11.3838 0.000
vt 11.3838 1.0000
vt 22.6676 0.000
vt 22.6676 1.0000
vt 0.000 0.000
vt 0.000 1.0000
vt 0.5405 0.000
vt 0.5405 1.0000
vt 0.6405 0.000
vt 0.6405 1.0000
vt 1.1811 0.000
vt 1.1811 1.0000
vt 0.000 0.000
vt 0.000 1.0000
vt 2.2726 0.000
vt 2.2726 1.0000
vt 2.3726 0.000
vt 2.3726 1.0000
vt 4.6452 0.000
vt 4.6452 1.0000
vt 0.000 0.000
vt 0.000 1.0000
vt 0.4929 0.000
vt 0.4929 1.0000
vt 0.5929 0.000
vt 0.5929 1.0000
vt 1.0858 0.000
vt 1.0858 1.0000
vt 0.000 0.000
vt 0.000 1.0000
vt 1.5839 0.000
vt 1.5839 1.0000
vt 1.6839 0.000
vt 1.6839 1.0000
vt 3.2677 0.000
vt 3.2677 1.0000
vt 0.000 0.000
vt 0.000 1.0000
vt 0.4568 0.000
vt 0.4568 1.0000
vt 0.5568 0.000
vt 0.5568 1.0000
vt 1.0135 0.000
vt 1.0135 1.0000
vt 0.000 0.000
vt 0.000 1.0000
vt 0.3866 0.000
vt 0.3866 1.0000
vt 0.4866 0.000
vt 0.4866 1.0000
vt 0.8732 0.000
vt 0.8732 1.0000
vt 0.000 0.000
vt 0.000 1.0000
vt 14.6960 0.000
vt 14.6960 1.0000
vt 14.7960 0.000
vt 14.7960 1.0000
vt 29.4921 0.000
vt 29.4921 1.0000
vt 0.000 0.000
vt 0.000 1.0000
vt 0.3306 0.000
vt 0.3306 1.0000
vt 0.4306 0.000
vt 0.4306 1.0000
vt 0.7612 0.000
vt 0.7612 1.0000
vt 0.000 0.000
vt 0.000 1.0000
vt 0.1350 0.000
vt 0.1350 1.0000
vt 0.2350 0.000
vt 0.2350 1.0000
vt 0.3700 0.000
vt 0.3700 1.0000
vt 0.000 0.000
vt 0.000 1.0000
vt 1.0437 0.000
vt 1.0437 1.0000
vt 1.1437 0.000
vt 1.1437 1.0000
vt 2.1874 0.000
vt 2.1874 1.0000
vt 0.000 0.000
vt 0.000 1.0000
vt 0.4460 0.000
vt 0.4460 1.0000
vt 0.5460 0.000
vt 0.5460 1.0000
vt 0.9921 0.000
vt 0.9921 1.0000
vt 0.000 0.000
vt 0.000 1.0000
vt 2.3862 0.000
vt 2.3862 1.0000
vt 2.4862 0.000
vt 2.4862 1.0000
vt 4.8723 0.000
vt 4.8723 1.0000
vt 0.000 0.000
vt 0.000 1.0000
vt 0.3503 0.000
vt 0.3503 1.0000
vt 0.4503 0.000
vt 0.4503 1.0000
vt 0.8005 0.000
vt 0.8005 1.0000
vt 0.000 0.000
vt 0.000 1.0000
vt 0.6993 0.000
vt 0.6993 1.0000
vt 0.7993 0.000
vt 0.7993 1.0000
vt 1.4986 0.000
vt 1.4986 1.0000
vt 0.000 0.000
vt 0.000 1.0000
vt 0.8649 0.000
vt 0.8649 1.0000
vt 0.9649 0.000
vt 0.9649 1.0000
vt 1.8298 0.000
vt 1.8298 1.0000
vt 0.000 0.000
vt 0.000 1.0000
vt 0.2402 0.000
vt 0.2402 1.0000
vt 0.3402 0.000
vt 0.3402 1.0000
vt 0.5804 0.000
vt 0.5804 1.0000
vt 0.000 0.000
vt 0.000 1.0000
vt 0.8283 0.000
vt 0.8283 1.0000
vt 0.9283 0.000
vt 0.9283 1.0000
vt 1.7566 0.000
vt 1.7566 1.0000
vt 0.000 0.000
vt 0.000 1.0000
vt 0.2880 0.000
vt 0.2880 1.0000
vt 0.3880 0.000
vt 0.3880 1.0000
vt 0.6761 0.000
vt 0.6761 1.0000
vt 0.000 0.000
vt 0.000 1.0000
vt 6.4990 0.000
vt 6.4990 1.0000
vt 6.5990 0.000
vt 6.5990 1.0000
vt 13.0979 0.000
vt 13.0979 1.0000
vt 0.000 0.000
vt 0.000 1.0000
vt 0.3605 0.000
vt 0.3605 1.0000
vt 0.4605 0.000
vt 0.4605 1.0000
vt 0.8210 0.000
vt 0.8210 1.0000
vt 0.000 0.000
vt 0.000 1.0000
vt 0.8223 0.000
vt 0.8223 1.0000
vt 0.9223 0.000
vt 0.9223 1.0000
vt 1.7447 0.000
vt 1.7447 1.0000
vt 0.000 0.000
vt 0.000 1.0000
vt 0.3944 0.000
vt 0.3944 1.0000
vt 0.4944 0.000
vt 0.4944 1.0000
vt 0.8888 0.000
vt 0.8888 1.0000
vt 0.000 0.000
vt 0.000 1.0000
vt 4.9107 0.000
vt 4.9107 1.0000
vt 5.0107 0.000
vt 5.0107 1.0000
vt 9.9214 0.000
vt 9.9214 1.0000
vt 0.000 0.000
vt 0.000 1.0000
vt 0.1858 0.000
vt 0.1858 1.0000
vt 0.2858 0.000
vt 0.2858 1.0000
vt 0.4716 0.000
vt 0.4716 1.0000
vt 0.000 0.000
vt 0.000 1.0000
vt 3.1382 0.000
vt 3.1382 1.0000
vt 3.2382 0.000
vt 3.2382 1.0000
vt 6.3763 0.000
vt 6.3763 1.0000
vt 0.000 0.000
vt 0.000 1.0000
vt 1.8728 0.000
vt 1.8728 1.0000
vt 1.9728 0.000
vt 1.9728 1.0000
vt 3.8456 0.000
vt 3.8456 1.0000
vt 0.000 0.000
vt 0.000 1.0000
vt 3.2057 0.000
vt 3.2057 1.0000
vt 3.3057 0.000
vt 3.3057 1.0000
vt 6.5113 0.000
vt 6.5113 1.0000
vt 0.000 0.000
vt 0.000 1.0000
vt 18.9533 0.000
vt 18.9533 1.0000
vt 19.0533 0.000
vt 19.0533 1.0000
vt 38.0066 0.000
vt 38.0066 1.0000
vt 0.000 0.000
vt 0.000 1.0000
vt 1.5059 0.000
vt 1.5059 1.0000
vt 1.6059 0.000
vt 1.6059 1.0000
vt 3.1119 0.000
vt 3.1119 1.0000
vt 0.000 0.000
vt 0.000 1.0000
vt 0.5695 0.000
vt 0.5695 1.0000
vt 0.6695 0.000
vt 0.6695 1.0000
vt 1.2390 0.000
vt 1.2390 1.0000
vt 0.000 0.000
vt 0.000 1.0000
vt 0.5527 0.000
vt 0.5527 1.0000
vt 0.6527 0.000
vt 0.6527 1.0000
vt 1.2055 0.000
vt 1.2055 1.0000
vt 0.000 0.000
vt 0.000 1.0000
vt 1.2789 0.000
vt 1.2789 1.0000
vt 1.3789 0.000
vt 1.3789 1.0000
vt 2.6579 0.000
vt 2.6579 1.0000
vt 0.000 0.000
vt 0.000 1.0000
vt 2.0159 0.000
vt 2.0159 1.0000
vt 2.1159 0.000
vt 2.1159 1.0000
vt 4.1317 0.000
vt 4.1317 1.0000
vt 0.000 0.000
vt 0.000 1.0000
vt 2.5967 0.000
vt 2.5967 1.0000
vt 2.6967 0.000
vt 2.6967 1.0000
vt 5.2934 0.000
vt 5.2934 1.0000
vt 0.000 0.000
vt 0.000 1.0000
vt 1.9045 0.000
vt 1.9045 1.0000
vt 2.0045 0.000
vt 2.0045 1.0000
vt 3.9090 0.000
vt 3.9090 1.0000
vt 0.000 0.000
vt 0.000 1.0000
vt 2.2476 0.000
vt 2.2476 1.0000
vt 2.3476 0.000
vt 2.3476 1.0000
vt 4.5952 0.000
vt 4.5952 1.0000
vt 0.000 0.000
vt 0.000 1.0000
vt 0.4495 0.000
vt 0.4495 1.0000
vt 0.5495 0.000
vt 0.5495 1.0000
vt 0.9991 0.000
vt 0.9991 1.0000
vt 0.000 0.000
vt 0.000 1.0000
vt 0.2861 0.000
vt 0.2861 1.0000
vt 0.3861 0.000
vt 0.3861 1.0000
vt 0.6721 0.000
vt 0.6721 1.0000
vt 0.000 0.000
vt 0.000 1.0000
vt 4.4262 0.000
vt 4.4262 1.0000
vt 4.5262 0.000
vt 4.5262 1.0000
vt 8.9524 0.000
vt 8.9524 1.0000
vt 0.000 0.000
vt 0.000 1.0000
vt 0.2220 0.000
vt 0.2220 1.0000
vt 0.3220 0.000
vt 0.3220 1.0000
vt 0.5441 0.000
vt 0.5441 1.0000
vt 0.000 0.000
vt 0.000 1.0000
vt 0.3206 0.000
vt 0.3206 1.0000
vt 0.4206 0.000
vt 0.4206 1.0000
vt 0.7412 0.000
vt 0.7412 1.0000
vt 0.000 0.000
vt 0.000 1.0000
vt 0.2219 0.000
vt 0.2219 1.0000
vt 0.3219 0.000
vt 0.3219 1.0000
vt 0.5438 0.000
vt 0.5438 1.0000
vt 0.000 0.000
vt 0.000 1.0000
vt 1.5286 0.000
vt 1.5286 1.0000
vt 1.6286 0.000
vt 1.6286 1.0000
vt 3.1572 0.000
vt 3.1572 1.0000
vt 0.000 0.000
vt 0.000 1.0000
vt 1.0520 0.000
vt 1.0520 1.0000
vt 1.1520 0.000
vt 1.1520 1.0000
vt 2.2039 0.000
vt 2.2039 1.0000
vt 0.000 0.000
vt 0.000 1.0000
vt 2.1614 0.000
vt 2.1614 1.0000
vt 2.2614 0.000
vt 2.2614 1.0000
vt 4.4227 0.000
vt 4.4227 1.0000
vt 0.000 0.000
vt 0.000 1.0000
vt 1.0603 0.000
vt 1.0603 1.0000
vt 1.1603 0.000
vt 1.1603 1.0000
vt 2.2206 0.000
vt 2.2206 1.0000
vt 0.000 0.000
vt 0.000 1.0000
vt 6.3261 0.000
vt 6.3261 1.0000
vt 6.4261 0.000
vt 6.4261 1.0000
vt 12.7522 0.000
vt 12.7522 1.0000
vt 0.000 0.000
vt 0.000 1.0000
vt 0.3157 0.000
vt 0.3157 1.0000
vt 0.4157 0.000
vt 0.4157 1.0000
vt 0.7313 0.000
vt 0.7313 1.0000
vt 0.000 0.000
vt 0.000 1.0000
vt 0.2749 0.000
vt 0.2749 1.0000
vt 0.3749 0.000
vt 0.3749 1.0000
vt 0.6498 0.000
vt 0.6498 1.0000
vt 0.000 0.000
vt 0.000 1.0000
vt 0.7393 0.000
vt 0.7393 1.0000
vt 0.8393 0.000
vt 0.8393 1.0000
vt 1.5786 0.000
vt 1.5786 1.0000
vt 0.000 0.000
vt 0.000 1.0000
vt 0.2949 0.000
vt 0.2949 1.0000
vt 0.3949 0.000
vt 0.3949 1.0000
vt 0.6897 0.000
vt 0.6897 1.0000
vt 0.000 0.000
vt 0.000 1.0000
vt 1.1158 0.000
vt 1.1158 1.0000
vt 1.2158 0.000
vt 1.2158 1.0000
vt 2.3316 0.000
vt 2.3316 1.0000
vt 0.000 0.000
vt 0.000 1.0000
vt 3.1613 0.000
vt 3.1613 1.0000
vt 3.2613 0.000
vt 3.2613 1.0000
vt 6.4227 0.000
vt 6.4227 1.0000
vt 0.000 0.000
vt 0.000 1.0000
vt 1.1746 0.000
vt 1.1746 1.0000
vt 1.2746 0.000
vt 1.2746 1.0000
vt 2.4492 0.000
vt 2.4492 1.0000
vt 0.000 0.000
vt 0.000 1.0000
vt 0.2359 0.000
vt 0.2359 1.0000
vt 0.3359 0.000
vt 0.3359 1.0000
vt 0.5718 0.000
vt 0.5718 1.0000
vt 0.000 0.000
vt 0.000 1.0000
vt 0.7270 0.000
vt 0.7270 1.0000
vt 0.8270 0.000
vt 0.8270 1.0000
vt 1.5540 0.000
vt 1.5540 1.0000
vt 0.000 0.000
vt 0.000 1.0000
vt 0.2237 0.000
vt 0.2237 1.0000
vt 0.3237 0.000
vt 0.3237 1.0000
vt 0.5473 0.000
vt 0.5473 1.0000
vt 0.000 0.000
vt 0.000 1.0000
vt 0.8115 0.000
vt 0.8115 1.0000
vt 0.9115 0.000
vt 0.9115 1.0000
vt 1.7231 0.000
vt 1.7231 1.0000
vt 0.000 0.000
vt 0.000 1.0000
vt 2.1171 0.000
vt 2.1171 1.0000
vt 2.2171 0.000
vt 2.2171 1.0000
vt 4.3342 0.000
vt 4.3342 1.0000
vt 0.000 0.000
vt 0.000 1.0000
vt 0.8298 0.000
vt 0.8298 1.0000
vt 0.9298 0.000
vt 0.9298 1.0000
vt 1.7597 0.000
vt 1.7597 1.0000
vt 0.000 0.000
vt 0.000 1.0000
vt 0.2460 0.000
vt 0.2460 1.0000
vt 0.3460 0.000
vt 0.3460 1.0000
vt 0.5919 0.000
vt 0.5919 1.0000
vt 0.000 0.000
vt 0.000 1.0000
vt 0.3551 0.000
vt 0.3551 1.0000
vt 0.4551 0.000
vt 0.4551 1.0000
vt 0.8103 0.000
vt 0.8103 1.0000
vt 0.000 0.000
vt 0.000 1.0000
vt 4.0164 0.000
vt 4.0164 1.0000
vt 4.1164 0.000
vt 4.1164 1.0000
vt 8.1328 0.000
vt 8.1328 1.0000
vt 0.000 0.000
vt 0.000 1.0000
vt 0.3008 0.000
vt 0.3008 1.0000
vt 0.4008 0.000
vt 0.4008 1.0000
vt 0.7017 0.000
vt 0.7017 1.0000
vt 0.000 0.000
vt 0.000 1.0000
vt 0.7034 0.000
vt 0.7034 1.0000
vt 0.8034 0.000
vt 0.8034 1.0000
vt 1.5067 0.000
vt 1.5067 1.0000
vt 0.000 0.000
vt 0.000 1.0000
vt 0.3323 0.000
vt 0.3323 1.0000
vt 0.4323 0.000
vt 0.4323 1.0000
vt 0.7645 0.000
vt 0.7645 1.0000
vt 0.000 0.000
vt 0.000 1.0000
vt 6.4272 0.000
vt 6.4272 1.0000
vt 6.5272 0.000
vt 6.5272 1.0000
vt 12.9544 0.000
vt 12.9544 1.0000
vt 0.000 0.000
vt 0.000 1.0000
vt 0.3006 0.000
vt 0.3006 1.0000
vt 0.4006 0.000
vt 0.4006 1.0000
vt 0.7013 0.000
vt 0.7013 1.0000
vt 0.000 0.000
vt 0.000 1.0000
vt 0.8404 0.000
vt 0.8404 1.0000
vt 0.9404 0.000
vt 0.9404 1.0000
vt 1.7807 0.000
vt 1.7807 1.0000
vt 0.000 0.000
vt 0.000 1.0000
vt 0.1123 0.000
vt 0.1123 1.0000
vt 0.2123 0.000
vt 0.2123 1.0000
vt 0.3246 0.000
vt 0.3246 1.0000
vt 0.000 0.000
vt 0.000 1.0000
vt 0.8725 0.000
vt 0.8725 1.0000
vt 0.9725 0.000
vt 0.9725 1.0000
vt 1.8449 0.000
vt 1.8449 1.0000
vt 0.000 0.000
vt 0.000 1.0000
vt 0.1497 0.000
vt 0.1497 1.0000
vt 0.2497 0.000
vt 0.2497 1.0000
vt 0.3995 0.000
vt 0.3995 1.0000
vt 0.000 0.000
vt 0.000 1.0000
vt 0.8162 0.000
vt 0.8162 1.0000
vt 0.9162 0.000
vt 0.9162 1.0000
vt 1.7325 0.000
vt 1.7325 1.0000
vt 0.000 0.000
vt 0.000 1.0000
vt 0.1381 0.000
vt 0.1381 1.0000
vt 0.2381 0.000
vt 0.2381 1.0000
vt 0.3761 0.000
vt 0.3761 1.0000
vt 0.000 0.000
vt 0.000 1.0000
vt 0.4897 0.000
vt 0.4897 1.0000
vt 0.5897 0.000
vt 0.5897 1.0000
vt 1.0794 0.000
vt 1.0794 1.0000
vt 0.000 0.000
vt 0.000 1.0000
vt 0.1748 0.000
vt 0.1748 1.0000
vt 0.2748 0.000
vt 0.2748 1.0000
vt 0.4496 0.000
vt 0.4496 1.0000
vt 0.000 0.000
vt 0.000 1.0000
vt 0.8580 0.000
vt 0.8580 1.0000
vt 0.9580 0.000
vt 0.9580 1.0000
vt 1.8161 0.000
vt 1.8161 1.0000
vt 0.000 0.000
vt 0.000 1.0000
vt 0.1770 0.000
vt 0.1770 1.0000
vt 0.2770 0.000
vt 0.2770 1.0000
vt 0.4541 0.000
vt 0.4541 1.0000
vt 0.000 0.000
vt 0.000 1.0000
vt 5.2575 0.000
vt 5.2575 1.0000
vt 5.3575 0.000
vt 5.3575 1.0000
vt 10.6150 0.000
vt 10.6150 1.0000
vt 0.000 0.000
vt 0.000 1.0000
vt 0.7302 0.000
vt 0.7302 1.0000
vt 0.8302 0.000
vt 0.8302 1.0000
vt 1.5604 0.000
vt 1.5604 1.0000
vt 0.000 0.000
vt 0.000 1.0000
vt 0.9370 0.000
vt 0.9370 1.0000
vt 1.0370 0.000
vt 1.0370 1.0000
vt 1.9741 0.000
vt 1.9741 1.0000
vt 0.000 0.000
vt 0.000 1.0000
vt 0.7390 0.000
vt 0.7390 1.0000
vt 0.8390 0.000
vt 0.8390 1.0000
vt 1.5780 0.000
vt 1.5780 1.0000
vt 0.000 0.000
vt 0.000 1.0000
vt 0.8149 0.000
vt 0.8149 1.0000
vt 0.9149 0.000
vt 0.9149 1.0000
vt 1.7299 0.000
vt 1.7299 1.0000
vt 0.000 0.000
vt 0.000 1.0000
vt 5.4782 0.000
vt 5.4782 1.0000
vt 5.5782 0.000
vt 5.5782 1.0000
vt 11.0563 0.000
vt 11.0563 1.0000
vt 0.000 0.000
vt 0.000 1.0000
vt 0.2330 0.000
vt 0.2330 1.0000
vt 0.3330 0.000
vt 0.3330 1.0000
vt 0.5660 0.000
vt 0.5660 1.0000
vt 0.000 0.000
vt 0.000 1.0000
vt 0.8309 0.000
vt 0.8309 1.0000
vt 0.9309 0.000
vt 0.9309 1.0000
vt 1.7618 0.000
vt 1.7618 1.0000
vt 0.000 0.000
vt 0.000 1.0000
vt 0.2707 0.000
vt 0.2707 1.0000
vt 0.3707 0.000
vt 0.3707 1.0000
vt 0.6415 0.000
vt 0.6415 1.0000
vt 0.000 0.000
vt 0.000 1.0000
vt 0.4847 0.000
vt 0.4847 1.0000
vt 0.5847 0.000
vt 0.5847 1.0000
vt 1.0694 0.000
vt 1.0694 1.0000
vt 0.000 0.000
vt 0.000 1.0000
vt 1.4963 0.000
vt 1.4963 1.0000
vt 1.5963 0.000
vt 1.5963 1.0000
vt 3.0925 0.000
vt 3.0925 1.0000
vn 0.0000 0.0000 1.0000
vn 0.9999 -0.0122 0.0000
vn 0.0122 0.9999 0.0000
vn -0.9999 0.0122 0.0000
vn -0.0122 -0.9999 0.0000
vn -0.0106 0.9999 0.0000
vn -0.9999 -0.0106 0.0000
vn 0.0106 -0.9999 0.0000
vn 0.9999 0.0106 0.0000
vn -1.0000 0.0000 0.0000
vn -0.0000 -1.0000 0.0000
vn 1.0000 -0.0000 0.0000
vn 0.0000 1.0000 0.0000
vn -0.0000 -1.0000 0.0000
vn 1.0000 -0.0000 0.0000
vn 0.0000 1.0000 0.0000
vn -1.0000 0.0000 0.0000
vn 1.0000 0.0000 0.0000
vn -0.0000 1.0000 0.0000
vn -1.0000 -0.0000 0.0000
vn 0.0000 -1.0000 0.0000
vn 0.0020 1.0000 0.0000
vn -1.0000 0.0020 0.0000
vn -0.0020 -1.0000 0.0000
vn 1.0000 -0.0020 0.0000
vn 1.0000 -0.0072 0.0000
vn 0.0072 1.0000 0.0000
vn -1.0000 0.0072 0.0000
vn -0.0072 -1.0000 0.0000
vn -1.0000 0.0016 0.0000
vn -0.0016 -1.0000 0.0000
vn 1.0000 -0.0016 0.0000
vn 0.0016 1.0000 0.0000
vn 0.0005 -1.0000 0.0000
vn 1.0000 0.0005 0.0000
vn -0.0005 1.0000 0.0000
vn -1.0000 -0.0005 0.0000
vn 1.0000 0.0000 0.0000
vn -0.0000 1.0000 0.0000
vn -1.0000 -0.0000 0.0000
vn 0.0000 -1.0000 0.0000
vn -0.0000 -1.0000 0.0000
vn 1.0000 -0.0000 0.0000
vn 0.0000 1.0000 0.0000
vn -1.0000 0.0000 0.0000
vn -1.0000 0.0000 0.0000
vn -0.0000 -1.0000 0.0000
vn 1.0000 -0.0000 0.0000
vn 0.0000 1.0000 0.0000
vn 0.0088 -1.0000 0.0000
vn 1.0000 0.0088 0.0000
vn -0.0088 1.0000 0.0000
vn -1.0000 -0.0088 0.0000
vn 1.0000 -0.0031 0.0000
vn 0.0031 1.0000 0.0000
vn -1.0000 0.0031 0.0000
vn -0.0031 -1.0000 0.0000
vn -0.0000 -1.0000 0.0000
vn 1.0000 -0.0000 0.0000
vn 0.0000 1.0000 0.0000
vn -1.0000 0.0000 0.0000
vn 1.0000 -0.0000 0.0000
vn 0.0000 1.0000 0.0000
vn -1.0000 0.0000 0.0000
vn -0.0000 -1.0000 0.0000
vn -0.0294 0.9996 0.0000
vn -0.9996 -0.0294 0.0000
vn 0.0294 -0.9996 0.0000
vn 0.9996 0.0294 0.0000
vn 1.0000 -0.0070 0.0000
vn 0.0070 1.0000 0.0000
vn -1.0000 0.0070 0.0000
vn -0.0070 -1.0000 0.0000
vn 0.0323 -0.9995 0.0000
vn 0.9995 0.0323 0.0000
vn -0.0323 0.9995 0.0000
vn -0.9995 -0.0323 0.0000
vn 0.9999 -0.0120 0.0000
vn 0.0120 0.9999 0.0000
vn -0.9999 0.0120 0.0000
vn -0.0120 -0.9999 0.0000
vn 0.0384 0.9993 0.0000
vn -0.9993 0.0384 0.0000
vn -0.0384 -0.9993 0.0000
vn 0.9993 -0.0384 0.0000
vn 0.9990 -0.0454 0.0000
vn 0.0454 0.9990 0.0000
vn -0.9990 0.0454 0.0000
vn -0.0454 -0.9990 0.0000
vn -0.0012 1.0000 0.0000
vn -1.0000 -0.0012 0.0000
vn 0.0012 -1.0000 0.0000
vn 1.0000 0.0012 0.0000
vn -0.9990 -0.0437 0.0000
vn 0.0437 -0.9990 0.0000
vn 0.9990 0.0437 0.0000
vn -0.0437 0.9990 0.0000
vn 0.1321 -0.9912 0.0000
vn 0.9912 0.1321 0.0000
vn -0.1321 0.9912 0.0000
vn -0.9912 -0.1321 0.0000
vn -1.0000 0.0085 0.0000
vn -0.0085 -1.0000 0.0000
vn 1.0000 -0.0085 0.0000
vn 0.0085 1.0000 0.0000
vn 0.0000 1.0000 0.0000
vn -1.0000 0.0000 0.0000
vn 0.0000 -1.0000 0.0000
vn 1.0000 0.0000 0.0000
vn -1.0000 0.0036 0.0000
vn -0.0036 -1.0000 0.0000
vn 1.0000 -0.0036 0.0000
vn 0.0036 1.0000 0.0000
vn -0.0000 -1.0000 0.0000
vn 1.0000 -0.0000 0.0000
vn 0.0000 1.0000 0.0000
vn -1.0000 0.0000 0.0000
vn -1.0000 -0.0004 0.0000
vn 0.0004 -1.0000 0.0000
vn 1.0000 0.0004 0.0000
vn -0.0004 1.0000 0.0000
vn -0.0416 -0.9991 0.0000
vn 0.9991 -0.0416 0.0000
vn 0.0416 0.9991 0.0000
vn -0.9991 0.0416 0.0000
vn -0.9744 0.2248 0.0000
vn -0.2248 -0.9744 0.0000
vn 0.9744 -0.2248 0.0000
vn 0.2248 0.9744 0.0000
vn -0.0217 -0.9998 0.0000
vn 0.9998 -0.0217 0.0000
vn 0.0217 0.9998 0.0000
vn -0.9998 0.0217 0.0000
vn 1.0000 0.0000 0.0000
vn -0.0000 1.0000 0.0000
vn -1.0000 -0.0000 0.0000
vn 0.0000 -1.0000 0.0000
vn -0.0028 -1.0000 0.0000
vn 1.0000 -0.0028 0.0000
vn 0.0028 1.0000 0.0000
vn -1.0000 0.0028 0.0000
vn -0.9988 0.0499 0.0000
vn -0.0499 -0.9988 0.0000
vn 0.9988 -0.0499 0.0000
vn 0.0499 0.9988 0.0000
vn -0.0173 -0.9999 0.0000
vn 0.9999 -0.0173 0.0000
vn 0.0173 0.9999 0.0000
vn -0.9999 0.0173 0.0000
vn 0.9999 -0.0152 0.0000
vn 0.0152 0.9999 0.0000
vn -0.9999 0.0152 0.0000
vn -0.0152 -0.9999 0.0000
vn -0.0021 -1.0000 0.0000
vn 1.0000 -0.0021 0.0000
vn 0.0021 1.0000 0.0000
vn -1.0000 0.0021 0.0000
vn 0.9990 -0.0454 0.0000
vn 0.0454 0.9990 0.0000
vn -0.9990 0.0454 0.0000
vn -0.0454 -0.9990 0.0000
vn -0.0000 -1.0000 0.0000
vn 1.0000 -0.0000 0.0000
vn 0.0000 1.0000 0.0000
vn -1.0000 0.0000 0.0000
vn 1.0000 -0.0045 0.0000
vn 0.0045 1.0000 0.0000
vn -1.0000 0.0045 0.0000
vn -0.0045 -1.0000 0.0000
vn 0.0000 1.0000 0.0000
vn -1.0000 0.0000 0.0000
vn 0.0000 -1.0000 0.0000
vn 1.0000 0.0000 0.0000
vn 1.0000 -0.0009 0.0000
vn 0.0009 1.0000 0.0000
vn -1.0000 0.0009 0.0000
vn -0.0009 -1.0000 0.0000
vn -0.0021 -1.0000 0.0000
vn 1.0000 -0.0021 0.0000
vn 0.0021 1.0000 0.0000
vn -1.0000 0.0021 0.0000
vn 1.0000 0.0078 0.0000
vn -0.0078 1.0000 0.0000
vn -1.0000 -0.0078 0.0000
vn 0.0078 -1.0000 0.0000
vn -0.0000 -1.0000 0.0000
vn 1.0000 -0.0000 0.0000
vn 0.0000 1.0000 0.0000
vn -1.0000 0.0000 0.0000
vn 1.0000 0.0085 0.0000
vn -0.0085 1.0000 0.0000
vn -1.0000 -0.0085 0.0000
vn 0.0085 -1.0000 0.0000
vn 0.0000 1.0000 0.0000
vn -1.0000 0.0000 0.0000
vn 0.0000 -1.0000 0.0000
vn 1.0000 0.0000 0.0000
vn 1.0000 -0.0008 0.0000
vn 0.0008 1.0000 0.0000
vn -1.0000 0.0008 0.0000
vn -0.0008 -1.0000 0.0000
vn -0.0129 0.9999 0.0000
vn -0.9999 -0.0129 0.0000
vn 0.0129 -0.9999 0.0000
vn 0.9999 0.0129 0.0000
vn -1.0000 0.0000 0.0000
vn -0.0000 -1.0000 0.0000
vn 1.0000 -0.0000 0.0000
vn 0.0000 1.0000 0.0000
vn 0.0000 1.0000 0.0000
vn -1.0000 0.0000 0.0000
vn 0.0000 -1.0000 0.0000
vn 1.0000 0.0000 0.0000
vn -1.0000 0.0000 0.0000
vn -0.0000 -1.0000 0.0000
vn 1.0000 -0.0000 0.0000
vn 0.0000 1.0000 0.0000
vn 0.0083 1.0000 0.0000
vn -1.0000 0.0083 0.0000
vn -0.0083 -1.0000 0.0000
vn 1.0000 -0.0083 0.0000
vn -0.9993 0.0370 0.0000
vn -0.0370 -0.9993 0.0000
vn 0.9993 -0.0370 0.0000
vn 0.0370 0.9993 0.0000
vn -0.0257 0.9997 0.0000
vn -0.9997 -0.0257 0.0000
vn 0.0257 -0.9997 0.0000
vn 0.9997 0.0257 0.0000
vn 1.0000 0.0000 0.0000
vn -0.0000 1.0000 0.0000
vn -1.0000 -0.0000 0.0000
vn 0.0000 -1.0000 0.0000
vn -0.0054 1.0000 0.0000
vn -1.0000 -0.0054 0.0000
vn 0.0054 -1.0000 0.0000
vn 1.0000 0.0054 0.0000
vn 1.0000 0.0078 0.0000
vn -0.0078 1.0000 0.0000
vn -1.0000 -0.0078 0.0000
vn 0.0078 -1.0000 0.0000
vn 0.0000 1.0000 0.0000
vn -1.0000 0.0000 0.0000
vn 0.0000 -1.0000 0.0000
vn 1.0000 0.0000 0.0000
vn -0.9999 0.0155 0.0000
vn -0.0155 -0.9999 0.0000
vn 0.9999 -0.0155 0.0000
vn 0.0155 0.9999 0.0000
vn 0.0024 1.0000 0.0000
vn -1.0000 0.0024 0.0000
vn -0.0024 -1.0000 0.0000
vn 1.0000 -0.0024 0.0000
vn 0.9999 -0.0132 0.0000
vn 0.0132 0.9999 0.0000
vn -0.9999 0.0132 0.0000
vn -0.0132 -0.9999 0.0000
vn 0.0755 -0.9971 0.0000
vn 0.9971 0.0755 0.0000
vn -0.0755 0.9971 0.0000
vn -0.9971 -0.0755 0.0000
vn 0.9999 0.0112 0.0000
vn -0.0112 0.9999 0.0000
vn -0.9999 -0.0112 0.0000
vn 0.0112 -0.9999 0.0000
vn 0.0000 1.0000 0.0000
vn -1.0000 0.0000 0.0000
vn 0.0000 -1.0000 0.0000
vn 1.0000 0.0000 0.0000
vn 1.0000 0.0096 0.0000
vn -0.0096 1.0000 0.0000
vn -1.0000 -0.0096 0.0000
vn 0.0096 -1.0000 0.0000
vn -0.0203 0.9998 0.0000
vn -0.9998 -0.0203 0.0000
vn 0.0203 -0.9998 0.0000
vn 0.9998 0.0203 0.0000
vn -1.0000 0.0000 0.0000
vn -0.0000 -1.0000 0.0000
vn 1.0000 -0.0000 0.0000
vn 0.0000 1.0000 0.0000
vn -0.0905 0.9959 0.0000
vn -0.9959 -0.0905 0.0000
vn 0.0905 -0.9959 0.0000
vn 0.9959 0.0905 0.0000
vn -1.0000 -0.0085 0.0000
vn 0.0085 -1.0000 0.0000
vn 1.0000 0.0085 0.0000
vn -0.0085 1.0000 0.0000
vn -0.9514 0.3081 0.0000
vn -0.3081 -0.9514 0.0000
vn 0.9514 -0.3081 0.0000
vn 0.3081 0.9514 0.0000
vn -0.0058 1.0000 0.0000
vn -1.0000 -0.0058 0.0000
vn 0.0058 -1.0000 0.0000
vn 1.0000 0.0058 0.0000
vn -1.0000 0.0000 0.0000
vn -0.0000 -1.0000 0.0000
vn 1.0000 -0.0000 0.0000
vn 0.0000 1.0000 0.0000
vn 0.0123 -0.9999 0.0000
vn 0.9999 0.0123 0.0000
vn -0.0123 0.9999 0.0000
vn -0.9999 -0.0123 0.0000
vn -0.9996 0.0277 0.0000
vn -0.0277 -0.9996 0.0000
vn 0.9996 -0.0277 0.0000
vn 0.0277 0.9996 0.0000
vn -0.0096 -1.0000 0.0000
vn 1.0000 -0.0096 0.0000
vn 0.0096 1.0000 0.0000
vn -1.0000 0.0096 0.0000
vn -1.0000 -0.0015 0.0000
vn 0.0015 -1.0000 0.0000
vn 1.0000 0.0015 0.0000
vn -0.0015 1.0000 0.0000
vn -0.0130 0.9999 0.0000
vn -0.9999 -0.0130 0.0000
vn 0.0130 -0.9999 0.0000
vn 0.9999 0.0130 0.0000
vn -0.9998 0.0222 0.0000
vn -0.0222 -0.9998 0.0000
vn 0.9998 -0.0222 0.0000
vn 0.0222 0.9998 0.0000
vn -0.0353 -0.9994 0.0000
vn 0.9994 -0.0353 0.0000
vn 0.0353 0.9994 0.0000
vn -0.9994 0.0353 0.0000
vn -1.0000 0.0056 0.0000
vn -0.0056 -1.0000 0.0000
vn 1.0000 -0.0056 0.0000
vn 0.0056 1.0000 0.0000
vn -0.0688 0.9976 0.0000
vn -0.9976 -0.0688 0.0000
vn 0.0688 -0.9976 0.0000
vn 0.9976 0.0688 0.0000
vn -1.0000 -0.0014 0.0000
vn 0.0014 -1.0000 0.0000
vn 1.0000 0.0014 0.0000
vn -0.0014 1.0000 0.0000
vn 0.0000 1.0000 0.0000
vn -1.0000 0.0000 0.0000
vn 0.0000 -1.0000 0.0000
vn 1.0000 0.0000 0.0000
vn -0.9998 -0.0215 0.0000
vn 0.0215 -0.9998 0.0000
vn 0.9998 0.0215 0.0000
vn -0.0215 0.9998 0.0000
vn 0.0000 1.0000 0.0000
vn -1.0000 0.0000 0.0000
vn 0.0000 -1.0000 0.0000
vn 1.0000 0.0000 0.0000
vn -0.9998 -0.0183 0.0000
vn 0.0183 -0.9998 0.0000
vn 0.9998 0.0183 0.0000
vn -0.0183 0.9998 0.0000
vn 0.0382 -0.9993 0.0000
vn 0.9993 0.0382 0.0000
vn -0.0382 0.9993 0.0000
vn -0.9993 -0.0382 0.0000
vn -0.9999 -0.0130 0.0000
vn 0.0130 -0.9999 0.0000
vn 0.9999 0.0130 0.0000
vn -0.0130 0.9999 0.0000
vn 0.0487 0.9988 0.0000
vn -0.9988 0.0487 0.0000
vn -0.0487 -0.9988 0.0000
vn 0.9988 -0.0487 0.0000
vn -0.9999 0.0124 0.0000
vn -0.0124 -0.9999 0.0000
vn 0.9999 -0.0124 0.0000
vn 0.0124 0.9999 0.0000
vn -0.0602 -0.9982 0.0000
vn 0.9982 -0.0602 0.0000
vn 0.0602 0.9982 0.0000
vn -0.9982 0.0602 0.0000
vn -1.0000 -0.0057 0.0000
vn 0.0057 -1.0000 0.0000
vn 1.0000 0.0057 0.0000
vn -0.0057 1.0000 0.0000
vn -0.0121 0.9999 0.0000
vn -0.9999 -0.0121 0.0000
vn 0.0121 -0.9999 0.0000
vn 0.9999 0.0121 0.0000
vn -1.0000 0.0000 0.0000
vn -0.0000 -1.0000 0.0000
vn 1.0000 -0.0000 0.0000
vn 0.0000 1.0000 0.0000
vn 0.0080 -1.0000 0.0000
vn 1.0000 0.0080 0.0000
vn -0.0080 1.0000 0.0000
vn -1.0000 -0.0080 0.0000
vn -1.0000 -0.0060 0.0000
vn 0.0060 -1.0000 0.0000
vn 1.0000 0.0060 0.0000
vn -0.0060 1.0000 0.0000
vn -0.0020 -1.0000 0.0000
vn 1.0000 -0.0020 0.0000
vn 0.0020 1.0000 0.0000
vn -1.0000 0.0020 0.0000
vn -0.9996 -0.0270 0.0000
vn 0.0270 -0.9996 0.0000
vn 0.9996 0.0270 0.0000
vn -0.0270 0.9996 0.0000
vn -0.0000 -1.0000 0.0000
vn 1.0000 -0.0000 0.0000
vn 0.0000 1.0000 0.0000
vn -1.0000 0.0000 0.0000
vn 0.9997 -0.0233 0.0000
vn 0.0233 0.9997 0.0000
vn -0.9997 0.0233 0.0000
vn -0.0233 -0.9997 0.0000
vn -0.0000 -1.0000 0.0000
vn 1.0000 -0.0000 0.0000
vn 0.0000 1.0000 0.0000
vn -1.0000 0.0000 0.0000
vn 0.9999 0.0147 0.0000
vn -0.0147 0.9999 0.0000
vn -0.9999 -0.0147 0.0000
vn 0.0147 -0.9999 0.0000
usemtl wall_2
s off
g walls
f 1/1/2 2/2/2 3/3/2
f 4/4/2 3/3/2 2/2/2
f 3/3/3 4/4/3 5/5/3
f 6/6/3 5/5/3 4/4/3
f 5/5/4 6/6/4 7/7/4
f 8/8/4 7/7/4 6/6/4
f 7/7/5 8/8/5 1/1/5
f 2/2/5 1/1/5 8/8/5
f 2/1/1 6/1/1 4/1/1
f 2/1/1 8/1/1 6/1/1
f 9/9/6 10/10/6 11/11/6
f 12/12/6 11/11/6 10/10/6
f 11/11/7 12/12/7 13/13/7
f 14/14/7 13/13/7 12/12/7
f 13/13/8 14/14/8 15/15/8
f 16/16/8 15/15/8 14/14/8
f 15/15/9 16/16/9 9/9/9
f 10/10/9 9/9/9 16/16/9
f 10/1/1 14/1/1 12/1/1
f 10/1/1 16/1/1 14/1/1
f 17/17/10 18/18/10 19/19/10
f 20/20/10 19/19/10 18/18/10
f 19/19/11 20/20/11 21/21/11
f 22/22/11 21/21/11 20/20/11
f 21/21/12 22/22/12 23/23/12
f 24/24/12 23/23/12 22/22/12
f 23/23/13 24/24/13 17/17/13
f 18/18/13 17/17/13 24/24/13
f 18/1/1 22/1/1 20/1/1
f 18/1/1 24/1/1 22/1/1
f 25/25/14 26/26/14 27/27/14
f 28/28/14 27/27/14 26/26/14
f 27/27/15 28/28/15 29/29/15
f 30/30/15 29/29/15 28/28/15
f 29/29/16 30/30/16 31/31/16
f 32/32/16 31/31/16 30/30/16
f 31/31/17 32/32/17 25/25/17
f 26/26/17 25/25/17 32/32/17
f 26/1/1 30/1/1 28/1/1
f 26/1/1 32/1/1 30/1/1
f 33/33/18 34/34/18 35/35/18
f 36/36/18 35/35/18 34/34/18
f 35/35/19 36/36/19 37/37/19
f 38/38/19 37/37/19 36/36/19
f 37/37/20 38/38/20 39/39/20
f 40/40/20 39/39/20 38/38/20
f 39/39/21 40/40/21 33/33/21
f 34/34/21 33/33/21 40/40/21
f 34/1/1 38/1/1 36/1/1
f 34/1/1 40/1/1 38/1/1
f 41/41/22 42/42/22 43/43/22
f 44/44/22 43/43/22 42/42/22
f 43/43/23 44/44/23 45/45/23
f 46/46/23 45/45/23 44/44/23
f 45/45/24 46/46/24 47/47/24
f 48/48/24 47/47/24 46/46/24
f 47/47/25 48/48/25 41/41/25
f 42/42/25 41/41/25 48/48/25
f 42/1/1 46/1/1 44/1/1
f 42/1/1 48/1/1 46/1/1
f 49/49/26 50/50/26 51/51/26
f 52/52/26 51/51/26 50/50/26
f 51/51/27 52/52/27 53/53/27
f 54/54/27 53/53/27 52/52/27
f 53/53/28 54/54/28 55/55/28
f 56/56/28 55/55/28 54/54/28
f 55/55/29 56/56/29 49/49/29
f 50/50/29 49/49/29 56/56/29
f 50/1/1 54/1/1 52/1/1
f 50/1/1 56/1/1 54/1/1
f 57/57/30 58/58/30 59/59/30
f 60/60/30 59/59/30 58/58/30
f 59/59/31 60/60/31 61/61/31
f 62/62/31 61/61/31 60/60/31
f 61/61/32 62/62/32 63/63/32
f 64/64/32 63/63/32 62/62/32
f 63/63/33 64/64/33 57/57/33
f 58/58/33 57/57/33 64/64/33
f 58/1/1 62/1/1 60/1/1
f 58/1/1 64/1/1 62/1/1
f 65/65/34 66/66/34 67/67/34
f 68/68/34 67/67/34 66/66/34
f 67/67/35 68/68/35 69/69/35
f 70/70/35 69/69/35 68/68/35
f 69/69/36 70/70/36 71/71/36
f 72/72/36 71/71/36 70/70/36
f 71/71/37 72/72/37 65/65/37
f 66/66/37 65/65/37 72/72/37
f 66/1/1 70/1/1 68/1/1
f 66/1/1 72/1/1 70/1/1
f 73/73/38 74/74/38 75/75/38
f 76/76/38 75/75/38 74/74/38
f 75/75/39 76/76/39 77/77/39
f 78/78/39 77/77/39 76/76/39
f 77/77/40 78/78/40 79/79/40
f 80/80/40 79/79/40 78/78/40
f 79/79/41 80/80/41 73/73/41
f 74/74/41 73/73/41 80/80/41
f 74/1/1 78/1/1 76/1/1
f 74/1/1 80/1/1 78/1/1
f 81/81/42 82/82/42 83/83/42
f 84/84/42 83/83/42 82/82/42
f 83/83/43 84/84/43 85/85/43
f 86/86/43 85/85/43 84/84/43
f 85/85/44 86/86/44 87/87/44
f 88/88/44 87/87/44 86/86/44
f 87/87/45 88/88/45 81/81/45
f 82/82/45 81/81/45 88/88/45
f 82/1/1 86/1/1 84/1/1
f 82/1/1 88/1/1 86/1/1
f 89/89/46 90/90/46 91/91/46
f 92/92/46 91/91/46 90/90/46
f 91/91/47 92/92/47 93/93/47
f 94/94/47 93/93/47 92/92/47
f 93/93/48 94/94/48 95/95/48
f 96/96/48 95/95/48 94/94/48
f 95/95/49 96/96/49 89/89/49
f 90/90/49 89/89/49 96/96/49
f 90/1/1 94/1/1 92/1/1
f 90/1/1 96/1/1 94/1/1
f 97/97/50 98/98/50 99/99/50
f 100/100/50 99/99/50 98/98/50
f 99/99/51 100/100/51 101/101/51
f 102/102/51 101/101/51 100/100/51
f 101/101/52 102/102/52 103/103/52
f 104/104/52 103/103/52 102/102/52
f 103/103/53 104/104/53 97/97/53
f 98/98/53 97/97/53 104/104/53
f 98/1/1 102/1/1 100/1/1
f 98/1/1 104/1/1 102/1/1
f 105/105/54 106/106/54 107/107/54
f 108/108/54 107/107/54 106/106/54
f 107/107/55 108/108/55 109/109/55
f 110/110/55 109/109/55 108/108/55
f 109/109/56 110/110/56 111/111/56
f 112/112/56 111/111/56 110/110/56
f 111/111/57 112/112/57 105/105/57
f 106/106/57 105/105/57 112/112/57
f 106/1/1 110/1/1 108/1/1
f 106/1/1 112/1/1 110/1/1
f 113/113/58 114/114/58 115/115/58
f 116/116/58 115/115/58 114/114/58
f 115/115/59 116/116/59 117/117/59
f 118/118/59 117/117/59 116/116/59
f 117/117/60 118/118/60 119/119/60
f 120/120/60 119/119/60 118/118/60
f 119/119/61 120/120/61 113/113/61
f 114/114/61 113/113/61 120/120/61
f 114/1/1 118/1/1 116/1/1
f 114/1/1 120/1/1 118/1/1
f 121/121/62 122/122/62 123/123/62
f 124/124/62 123/123/62 122/122/62
f 123/123/63 124/124/63 125/125/63
f 126/126/63 125/125/63 124/124/63
f 125/125/64 126/126/64 127/127/64
f 128/128/64 127/127/64 126/126/64
f 127/127/65 128/128/65 121/121/65
f 122/122/65 121/121/65 128/128/65
f 122/1/1 126/1/1 124/1/1
f 122/1/1 128/1/1 126/1/1
f 129/129/66 130/130/66 131/131/66
f 132/132/66 131/131/66 130/130/66
f 131/131/67 132/132/67 133/133/67
f 134/134/67 133/133/67 132/132/67
f 133/133/68 134/134/68 135/135/68
f 136/136/68 135/135/68 134/134/68
f 135/135/69 136/136/69 129/129/69
f 130/130/69 129/129/69 136/136/69
f 130/1/1 134/1/1 132/1/1
f 130/1/1 136/1/1 134/1/1
f 137/137/70 138/138/70 139/139/70
f 140/140/70 139/139/70 138/138/70
f 139/139/71 140/140/71 141/141/71
f 142/142/71 141/141/71 140/140/71
f 141/141/72 142/142/72 143/143/72
f 144/144/72 143/143/72 142/142/72
f 143/143/73 144/144/73 137/137/73
f 138/138/73 137/137/73 144/144/73
f 138/1/1 142/1/1 140/1/1
f 138/1/1 144/1/1 142/1/1
f 145/145/74 146/146/74 147/147/74
f 148/148/74 147/147/74 146/146/74
f 147/147/75 148/148/75 149/149/75
f 150/150/75 149/149/75 148/148/75
f 149/149/76 150/150/76 151/151/76
f 152/152/76 151/151/76 150/150/76
f 151/151/77 152/152/77 145/145/77
f 146/146/77 145/145/77 152/152/77
f 146/1/1 150/1/1 148/1/1
f 146/1/1 152/1/1 150/1/1
f 153/153/78 154/154/78 155/155/78
f 156/156/78 155/155/78 154/154/78
f 155/155/79 156/156/79 157/157/79
f 158/158/79 157/157/79 156/156/79
f 157/157/80 158/158/80 159/159/80
f 160/160/80 159/159/80 158/158/80
f 159/159/81 160/160/81 153/153/81
f 154/154/81 153/153/81 160/160/81
f 154/1/1 158/1/1 156/1/1
f 154/1/1 160/1/1 158/1/1
f 161/161/82 162/162/82 163/163/82
f 164/164/82 163/163/82 162/162/82
f 163/163/83 164/164/83 165/165/83
f 166/166/83 165/165/83 164/164/83
f 165/165/84 166/166/84 167/167/84
f 168/168/84 167/167/84 166/166/84
f 167/167/85 168/168/85 161/161/85
f 162/162/85 161/161/85 168/168/85
f 162/1/1 166/1/1 164/1/1
f 162/1/1 168/1/1 166/1/1
f 169/169/86 170/170/86 171/171/86
f 172/172/86 171/171/86 170/170/86
f 171/171/87 172/172/87 173/173/87
f 174/174/87 173/173/87 172/172/87
f 173/173/88 174/174/88 175/175/88
f 176/176/88 175/175/88 174/174/88
f 175/175/89 176/176/89 169/169/89
f 170/170/89 169/169/89 176/176/89
f 170/1/1 174/1/1 172/1/1
f 170/1/1 176/1/1 174/1/1
f 177/177/90 178/178/90 179/179/90
f 180/180/90 179/179/90 178/178/90
f 179/179/91 180/180/91 181/181/91
f 182/182/91 181/181/91 180/180/91
f 181/181/92 182/182/92 183/183/92
f 184/184/92 183/183/92 182/182/92
f 183/183/93 184/184/93 177/177/93
f 178/178/93 177/177/93 184/184/93
f 178/1/1 182/1/1 180/1/1
f 178/1/1 184/1/1 182/1/1
f 185/185/94 186/186/94 187/187/94
f 188/188/94 187/187/94 186/186/94
f 187/187/95 188/188/95 189/189/95
f 190/190/95 189/189/95 188/188/95
f 189/189/96 190/190/96 191/191/96
f 192/192/96 191/191/96 190/190/96
f 191/191/97 192/192/97 185/185/97
f 186/186/97 185/185/97 192/192/97
f 186/1/1 190/1/1 188/1/1
f 186/1/1 192/1/1 190/1/1
f 193/193/98 194/194/98 195/195/98
f 196/196/98 195/195/98 194/194/98
f 195/195/99 196/196/99 197/197/99
f 198/198/99 197/197/99 196/196/99
f 197/197/100 198/198/100 199/199/100
f 200/200/100 199/199/100 198/198/100
f 199/199/101 200/200/101 193/193/101
f 194/194/101 193/193/101 200/200/101
f 194/1/1 198/1/1 196/1/1
f 194/1/1 200/1/1 198/1/1
f 201/201/102 202/202/102 203/203/102
f 204/204/102 203/203/102 202/202/102
f 203/203/103 204/204/103 205/205/103
f 206/206/103 205/205/103 204/204/103
f 205/205/104 206/206/104 207/207/104
f 208/208/104 207/207/104 206/206/104
f 207/207/105 208/208/105 201/201/105
f 202/202/105 201/201/105 208/208/105
f 202/1/1 206/1/1 204/1/1
f 202/1/1 208/1/1 206/1/1
f 209/209/106 210/210/106 211/211/106
f 212/212/106 211/211/106 210/210/106
f 211/211/107 212/212/107 213/213/107
f 214/214/107 213/213/107 212/212/107
f 213/213/108 214/214/108 215/215/108
f 216/216/108 215/215/108 214/214/108
f 215/215/109 216/216/109 209/209/109
f 210/210/109 209/209/109 216/216/109
f 210/1/1 214/1/1 212/1/1
f 210/1/1 216/1/1 214/1/1
f 217/217/110 218/218/110 219/219/110
f 220/220/110 219/219/110 218/218/110
f 219/219/111 220/220/111 221/221/111
f 222/222/111 221/221/111 220/220/111
f 221/221/112 222/222/112 223/223/112
f 224/224/112 223/223/112 222/222/112
f 223/223/113 224/224/113 217/217/113
f 218/218/113 217/217/113 224/224/113
f 218/1/1 222/1/1 220/1/1
f 218/1/1 224/1/1 222/1/1
f 225/225/114 226/226/114 227/227/114
f 228/228/114 227/227/114 226/226/114
f 227/227/115 228/228/115 229/229/115
f 230/230/115 229/229/115 228/228/115
f 229/229/116 230/230/116 231/231/116
f 232/232/116 231/231/116 230/230/116
f 231/231/117 232/232/117 225/225/117
f 226/226/117 225/225/117 232/232/117
f 226/1/1 230/1/1 228/1/1
f 226/1/1 232/1/1 230/1/1
f 233/233/118 234/234/118 235/235/118
f 236/236/118 235/235/118 234/234/118
f 235/235/119 236/236/119 237/237/119
f 238/238/119 237/237/119 236/236/119
f 237/237/120 238/238/120 239/239/120
f 240/240/120 239/239/120 238/238/120
f 239/239/121 240/240/121 233/233/121
f 234/234/121 233/233/121 240/240/121
f 234/1/1 238/1/1 236/1/1
f 234/1/1 240/1/1 238/1/1
f 241/241/122 242/242/122 243/243/122
f 244/244/122 243/243/122 242/242/122
f 243/243/123 244/244/123 245/245/123
f 246/246/123 245/245/123 244/244/123
f 245/245/124 246/246/124 247/247/124
f 248/248/124 247/247/124 246/246/124
f 247/247/125 248/248/125 241/241/125
f 242/242/125 241/241/125 248/248/125
f 242/1/1 246/1/1 244/1/1
f 242/1/1 248/1/1 246/1/1
f 249/249/126 250/250/126 251/251/126
f 252/252/126 251/251/126 250/250/126
f 251/251/127 252/252/127 253/253/127
f 254/254/127 253/253/127 252/252/127
f 253/253/128 254/254/128 255/255/128
f 256/256/128 255/255/128 254/254/128
f 255/255/129 256/256/129 249/249/129
f 250/250/129 249/249/129 256/256/129
f 250/1/1 254/1/1 252/1/1
f 250/1/1 256/1/1 254/1/1
f 257/257/130 258/258/130 259/259/130
f 260/260/130 259/259/130 258/258/130
f 259/259/131 260/260/131 261/261/131
f 262/262/131 261/261/131 260/260/131
f 261/261/132 262/262/132 263/263/132
f 264/264/132 263/263/132 262/262/132
f 263/263/133 264/264/133 257/257/133
f 258/258/133 257/257/133 264/264/133
f 258/1/1 262/1/1 260/1/1
f 258/1/1 264/1/1 262/1/1
f 265/265/134 266/266/134 267/267/134
f 268/268/134 267/267/134 266/266/134
f 267/267/135 268/268/135 269/269/135
f 270/270/135 269/269/135 268/268/135
f 269/269/136 270/270/136 271/271/136
f 272/272/136 271/271/136 270/270/136
f 271/271/137 272/272/137 265/265/137
f 266/266/137 265/265/137 272/272/137
f 266/1/1 270/1/1 268/1/1
f 266/1/1 272/1/1 270/1/1
f 273/273/138 274/274/138 275/275/138
f 276/276/138 275/275/138 274/274/138
f 275/275/139 276/276/139 277/277/139
f 278/278/139 277/277/139 276/276/139
f 277/277/140 278/278/140 279/279/140
f 280/280/140 279/279/140 278/278/140
f 279/279/141 280/280/141 273/273/141
f 274/274/141 273/273/141 280/280/141
f 274/1/1 278/1/1 276/1/1
f 274/1/1 280/1/1 278/1/1
f 281/281/142 282/282/142 283/283/142
f 284/284/142 283/283/142 282/282/142
f 283/283/143 284/284/143 285/285/143
f 286/286/143 285/285/143 284/284/143
f 285/285/144 286/286/144 287/287/144
f 288/288/144 287/287/144 286/286/144
f 287/287/145 288/288/145 281/281/145
f 282/282/145 281/281/145 288/288/145
f 282/1/1 286/1/1 284/1/1
f 282/1/1 288/1/1 286/1/1
f 289/289/146 290/290/146 291/291/146
f 292/292/146 291/291/146 290/290/146
f 291/291/147 292/292/147 293/293/147
f 294/294/147 293/293/147 292/292/147
f 293/293/148 294/294/148 295/295/148
f 296/296/148 295/295/148 294/294/148
f 295/295/149 296/296/149 289/289/149
f 290/290/149 289/289/149 296/296/149
f 290/1/1 294/1/1 292/1/1
f 290/1/1 296/1/1 294/1/1
f 297/297/150 298/298/150 299/299/150
f 300/300/150 299/299/150 298/298/150
f 299/299/151 300/300/151 301/301/151
f 302/302/151 301/301/151 300/300/151
f 301/301/152 302/302/152 303/303/152
f 304/304/152 303/303/152 302/302/152
f 303/303/153 304/304/153 297/297/153
f 298/298/153 297/297/153 304/304/153
f 298/1/1 302/1/1 300/1/1
f 298/1/1 304/1/1 302/1/1
f 305/305/154 306/306/154 307/307/154
f 308/308/154 307/307/154 306/306/154
f 307/307/155 308/308/155 309/309/155
f 310/310/155 309/309/155 308/308/155
f 309/309/156 310/310/156 311/311/156
f 312/312/156 311/311/156 310/310/156
f 311/311/157 312/312/157 305/305/157
f 306/306/157 305/305/157 312/312/157
f 306/1/1 310/1/1 308/1/1
f 306/1/1 312/1/1 310/1/1
f 313/313/158 314/314/158 315/315/158
f 316/316/158 315/315/158 314/314/158
f 315/315/159 316/316/159 317/317/159
f 318/318/159 317/317/159 316/316/159
f 317/317/160 318/318/160 319/319/160
f 320/320/160 319/319/160 318/318/160
f 319/319/161 320/320/161 313/313/161
f 314/314/161 313/313/161 320/320/161
f 314/1/1 318/1/1 316/1/1
f 314/1/1 320/1/1 318/1/1
f 321/321/162 322/322/162 323/323/162
f 324/324/162 323/323/162 322/322/162
f 323/323/163 324/324/163 325/325/163
f 326/326/163 325/325/163 324/324/163
f 325/325/164 326/326/164 327/327/164
f 328/328/164 327/327/164 326/326/164
f 327/327/165 328/328/165 321/321/165
f 322/322/165 321/321/165 328/328/165
f 322/1/1 326/1/1 324/1/1
f 322/1/1 328/1/1 326/1/1
f 329/329/166 330/330/166 331/331/166
f 332/332/166 331/331/166 330/330/166
f 331/331/167 332/332/167 333/333/167
f 334/334/167 333/333/167 332/332/167
f 333/333/168 334/334/168 335/335/168
f 336/336/168 335/335/168 334/334/168
f 335/335/169 336/336/169 329/329/169
f 330/330/169 329/329/169 336/336/169
f 330/1/1 334/1/1 332/1/1
f 330/1/1 336/1/1 334/1/1
f 337/337/170 338/338/170 339/339/170
f 340/340/170 339/339/170 338/338/170
f 339/339/171 340/340/171 341/341/171
f 342/342/171 341/341/171 340/340/171
f 341/341/172 342/342/172 343/343/172
f 344/344/172 343/343/172 342/342/172
f 343/343/173 344/344/173 337/337/173
f 338/338/173 337/337/173 344/344/173
f 338/1/1 342/1/1 340/1/1
f 338/1/1 344/1/1 342/1/1
f 345/345/174 346/346/174 347/347/174
f 348/348/174 347/347/174 346/346/174
f 347/347/175 348/348/175 349/349/175
f 350/350/175 349/349/175 348/348/175
f 349/349/176 350/350/176 351/351/176
f 352/352/176 351/351/176 350/350/176
f 351/351/177 352/352/177 345/345/177
f 346/346/177 345/345/177 352/352/177
f 346/1/1 350/1/1 348/1/1
f 346/1/1 352/1/1 350/1/1
f 353/353/178 354/354/178 355/355/178
f 356/356/178 355/355/178 354/354/178
f 355/355/179 356/356/179 357/357/179
f 358/358/179 357/357/179 356/356/179
f 357/357/180 358/358/180 359/359/180
f 360/360/180 359/359/180 358/358/180
f 359/359/181 360/360/181 353/353/181
f 354/354/181 353/353/181 360/360/181
f 354/1/1 358/1/1 356/1/1
f 354/1/1 360/1/1 358/1/1
f 361/361/182 362/362/182 363/363/182
f 364/364/182 363/363/182 362/362/182
f 363/363/183 364/364/183 365/365/183
f 366/366/183 365/365/183 364/364/183
f 365/365/184 366/366/184 367/367/184
f 368/368/184 367/367/184 366/366/184
f 367/367/185 368/368/185 361/361/185
f 362/362/185 361/361/185 368/368/185
f 362/1/1 366/1/1 364/1/1
f 362/1/1 368/1/1 366/1/1
f 369/369/186 370/370/186 371/371/186
f 372/372/186 371/371/186 370/370/186
f 371/371/187 372/372/187 373/373/187
f 374/374/187 373/373/187 372/372/187
f 373/373/188 374/374/188 375/375/188
f 376/376/188 375/375/188 374/374/188
f 375/375/189 376/376/189 369/369/189
f 370/370/189 369/369/189 376/376/189
f 370/1/1 374/1/1 372/1/1
f 370/1/1 376/1/1 374/1/1
f 377/377/190 378/378/190 379/379/190
f 380/380/190 379/379/190 378/378/190
f 379/379/191 380/380/191 381/381/191
f 382/382/191 381/381/191 380/380/191
f 381/381/192 382/382/192 383/383/192
f 384/384/192 383/383/192 382/382/192
f 383/383/193 384/384/193 377/377/193
f 378/378/193 377/377/193 384/384/193
f 378/1/1 382/1/1 380/1/1
f 378/1/1 384/1/1 382/1/1
f 385/385/194 386/386/194 387/387/194
f 388/388/194 387/387/194 386/386/194
f 387/387/195 388/388/195 389/389/195
f 390/390/195 389/389/195 388/388/195
f 389/389/196 390/390/196 391/391/196
f 392/392/196 391/391/196 390/390/196
f 391/391/197 392/392/197 385/385/197
f 386/386/197 385/385/197 392/392/197
f 386/1/1 390/1/1 388/1/1
f 386/1/1 392/1/1 390/1/1
f 393/393/198 394/394/198 395/395/198
f 396/396/198 395/395/198 394/394/198
f 395/395/199 396/396/199 397/397/199
f 398/398/199 397/397/199 396/396/199
f 397/397/200 398/398/200 399/399/200
f 400/400/200 399/399/200 398/398/200
f 399/399/201 400/400/201 393/393/201
f 394/394/201 393/393/201 400/400/201
f 394/1/1 398/1/1 396/1/1
f 394/1/1 400/1/1 398/1/1
f 401/401/202 402/402/202 403/403/202
f 404/404/202 403/403/202 402/402/202
f 403/403/203 404/404/203 405/405/203
f 406/406/203 405/405/203 404/404/203
f 405/405/204 406/406/204 407/407/204
f 408/408/204 407/407/204 406/406/204
f 407/407/205 408/408/205 401/401/205
f 402/402/205 401/401/205 408/408/205
f 402/1/1 406/1/1 404/1/1
f 402/1/1 408/1/1 406/1/1
f 409/409/206 410/410/206 411/411/206
f 412/412/206 411/411/206 410/410/206
f 411/411/207 412/412/207 413/413/207
f 414/414/207 413/413/207 412/412/207
f 413/413/208 414/414/208 415/415/208
f 416/416/208 415/415/208 414/414/208
f 415/415/209 416/416/209 409/409/209
f 410/410/209 409/409/209 416/416/209
f 410/1/1 414/1/1 412/1/1
f 410/1/1 416/1/1 414/1/1
f 417/417/210 418/418/210 419/419/210
f 420/420/210 419/419/210 418/418/210
f 419/419/211 420/420/211 421/421/211
f 422/422/211 421/421/211 420/420/211
f 421/421/212 422/422/212 423/423/212
f 424/424/212 423/423/212 422/422/212
f 423/423/213 424/424/213 417/417/213
f 418/418/213 417/417/213 424/424/213
f 418/1/1 422/1/1 420/1/1
f 418/1/1 424/1/1 422/1/1
f 425/425/214 426/426/214 427/427/214
f 428/428/214 427/427/214 426/426/214
f 427/427/215 428/428/215 429/429/215
f 430/430/215 429/429/215 428/428/215
f 429/429/216 430/430/216 431/431/216
f 432/432/216 431/431/216 430/430/216
f 431/431/217 432/432/217 425/425/217
f 426/426/217 425/425/217 432/432/217
f 426/1/1 430/1/1 428/1/1
f 426/1/1 432/1/1 430/1/1
f 433/433/218 434/434/218 435/435/218
f 436/436/218 435/435/218 434/434/218
f 435/435/219 436/436/219 437/437/219
f 438/438/219 437/437/219 436/436/219
f 437/437/220 438/438/220 439/439/220
f 440/440/220 439/439/220 438/438/220
f 439/439/221 440/440/221 433/433/221
f 434/434/221 433/433/221 440/440/221
f 434/1/1 438/1/1 436/1/1
f 434/1/1 440/1/1 438/1/1
f 441/441/222 442/442/222 443/443/222
f 444/444/222 443/443/222 442/442/222
f 443/443/223 444/444/223 445/445/223
f 446/446/223 445/445/223 444/444/223
f 445/445/224 446/446/224 447/447/224
f 448/448/224 447/447/224 446/446/224
f 447/447/225 448/448/225 441/441/225
f 442/442/225 441/441/225 448/448/225
f 442/1/1 446/1/1 444/1/1
f 442/1/1 448/1/1 446/1/1
f 449/449/226 450/450/226 451/451/226
f 452/452/226 451/451/226 450/450/226
f 451/451/227 452/452/227 453/453/227
f 454/454/227 453/453/227 452/452/227
f 453/453/228 454/454/228 455/455/228
f 456/456/228 455/455/228 454/454/228
f 455/455/229 456/456/229 449/449/229
f 450/450/229 449/449/229 456/456/229
f 450/1/1 454/1/1 452/1/1
f 450/1/1 456/1/1 454/1/1
f 457/457/230 458/458/230 459/459/230
f 460/460/230 459/459/230 458/458/230
f 459/459/231 460/460/231 461/461/231
f 462/462/231 461/461/231 460/460/231
f 461/461/232 462/462/232 463/463/232
f 464/464/232 463/463/232 462/462/232
f 463/463/233 464/464/233 457/457/233
f 458/458/233 457/457/233 464/464/233
f 458/1/1 462/1/1 460/1/1
f 458/1/1 464/1/1 462/1/1
f 465/465/234 466/466/234 467/467/234
f 468/468/234 467/467/234 466/466/234
f 467/467/235 468/468/235 469/469/235
f 470/470/235 469/469/235 468/468/235
f 469/469/236 470/470/236 471/471/236
f 472/472/236 471/471/236 470/470/236
f 471/471/237 472/472/237 465/465/237
f 466/466/237 465/465/237 472/472/237
f 466/1/1 470/1/1 468/1/1
f 466/1/1 472/1/1 470/1/1
f 473/473/238 474/474/238 475/475/238
f 476/476/238 475/475/238 474/474/238
f 475/475/239 476/476/239 477/477/239
f 478/478/239 477/477/239 476/476/239
f 477/477/240 478/478/240 479/479/240
f 480/480/240 479/479/240 478/478/240
f 479/479/241 480/480/241 473/473/241
f 474/474/241 473/473/241 480/480/241
f 474/1/1 478/1/1 476/1/1
f 474/1/1 480/1/1 478/1/1
f 481/481/242 482/482/242 483/483/242
f 484/484/242 483/483/242 482/482/242
f 483/483/243 484/484/243 485/485/243
f 486/486/243 485/485/243 484/484/243
f 485/485/244 486/486/244 487/487/244
f 488/488/244 487/487/244 486/486/244
f 487/487/245 488/488/245 481/481/245
f 482/482/245 481/481/245 488/488/245
f 482/1/1 486/1/1 484/1/1
f 482/1/1 488/1/1 486/1/1
f 489/489/246 490/490/246 491/491/246
f 492/492/246 491/491/246 490/490/246
f 491/491/247 492/492/247 493/493/247
f 494/494/247 493/493/247 492/492/247
f 493/493/248 494/494/248 495/495/248
f 496/496/248 495/495/248 494/494/248
f 495/495/249 496/496/249 489/489/249
f 490/490/249 489/489/249 496/496/249
f 490/1/1 494/1/1 492/1/1
f 490/1/1 496/1/1 494/1/1
f 497/497/250 498/498/250 499/499/250
f 500/500/250 499/499/250 498/498/250
f 499/499/251 500/500/251 501/501/251
f 502/502/251 501/501/251 500/500/251
f 501/501/252 502/502/252 503/503/252
f 504/504/252 503/503/252 502/502/252
f 503/503/253 504/504/253 497/497/253
f 498/498/253 497/497/253 504/504/253
f 498/1/1 502/1/1 500/1/1
f 498/1/1 504/1/1 502/1/1
f 505/505/254 506/506/254 507/507/254
f 508/508/254 507/507/254 506/506/254
f 507/507/255 508/508/255 509/509/255
f 510/510/255 509/509/255 508/508/255
f 509/509/256 510/510/256 511/511/256
f 512/512/256 511/511/256 510/510/256
f 511/511/257 512/512/257 505/505/257
f 506/506/257 505/505/257 512/512/257
f 506/1/1 510/1/1 508/1/1
f 506/1/1 512/1/1 510/1/1
f 513/513/258 514/514/258 515/515/258
f 516/516/258 515/515/258 514/514/258
f 515/515/259 516/516/259 517/517/259
f 518/518/259 517/517/259 516/516/259
f 517/517/260 518/518/260 519/519/260
f 520/520/260 519/519/260 518/518/260
f 519/519/261 520/520/261 513/513/261
f 514/514/261 513/513/261 520/520/261
f 514/1/1 518/1/1 516/1/1
f 514/1/1 520/1/1 518/1/1
f 521/521/262 522/522/262 523/523/262
f 524/524/262 523/523/262 522/522/262
f 523/523/263 524/524/263 525/525/263
f 526/526/263 525/525/263 524/524/263
f 525/525/264 526/526/264 527/527/264
f 528/528/264 527/527/264 526/526/264
f 527/527/265 528/528/265 521/521/265
f 522/522/265 521/521/265 528/528/265
f 522/1/1 526/1/1 524/1/1
f 522/1/1 528/1/1 526/1/1
f 529/529/266 530/530/266 531/531/266
f 532/532/266 531/531/266 530/530/266
f 531/531/267 532/532/267 533/533/267
f 534/534/267 533/533/267 532/532/267
f 533/533/268 534/534/268 535/535/268
f 536/536/268 535/535/268 534/534/268
f 535/535/269 536/536/269 529/529/269
f 530/530/269 529/529/269 536/536/269
f 530/1/1 534/1/1 532/1/1
f 530/1/1 536/1/1 534/1/1
f 537/537/270 538/538/270 539/539/270
f 540/540/270 539/539/270 538/538/270
f 539/539/271 540/540/271 541/541/271
f 542/542/271 541/541/271 540/540/271
f 541/541/272 542/542/272 543/543/272
f 544/544/272 543/543/272 542/542/272
f 543/543/273 544/544/273 537/537/273
f 538/538/273 537/537/273 544/544/273
f 538/1/1 542/1/1 540/1/1
f 538/1/1 544/1/1 542/1/1
f 545/545/274 546/546/274 547/547/274
f 548/548/274 547/547/274 546/546/274
f 547/547/275 548/548/275 549/549/275
f 550/550/275 549/549/275 548/548/275
f 549/549/276 550/550/276 551/551/276
f 552/552/276 551/551/276 550/550/276
f 551/551/277 552/552/277 545/545/277
f 546/546/277 545/545/277 552/552/277
f 546/1/1 550/1/1 548/1/1
f 546/1/1 552/1/1 550/1/1
f 553/553/278 554/554/278 555/555/278
f 556/556/278 555/555/278 554/554/278
f 555/555/279 556/556/279 557/557/279
f 558/558/279 557/557/279 556/556/279
f 557/557/280 558/558/280 559/559/280
f 560/560/280 559/559/280 558/558/280
f 559/559/281 560/560/281 553/553/281
f 554/554/281 553/553/281 560/560/281
f 554/1/1 558/1/1 556/1/1
f 554/1/1 560/1/1 558/1/1
f 561/561/282 562/562/282 563/563/282
f 564/564/282 563/563/282 562/562/282
f 563/563/283 564/564/283 565/565/283
f 566/566/283 565/565/283 564/564/283
f 565/565/284 566/566/284 567/567/284
f 568/568/284 567/567/284 566/566/284
f 567/567/285 568/568/285 561/561/285
f 562/562/285 561/561/285 568/568/285
f 562/1/1 566/1/1 564/1/1
f 562/1/1 568/1/1 566/1/1
f 569/569/286 570/570/286 571/571/286
f 572/572/286 571/571/286 570/570/286
f 571/571/287 572/572/287 573/573/287
f 574/574/287 573/573/287 572/572/287
f 573/573/288 574/574/288 575/575/288
f 576/576/288 575/575/288 574/574/288
f 575/575/289 576/576/289 569/569/289
f 570/570/289 569/569/289 576/576/289
f 570/1/1 574/1/1 572/1/1
f 570/1/1 576/1/1 574/1/1
f 577/577/290 578/578/290 579/579/290
f 580/580/290 579/579/290 578/578/290
f 579/579/291 580/580/291 581/581/291
f 582/582/291 581/581/291 580/580/291
f 581/581/292 582/582/292 583/583/292
f 584/584/292 583/583/292 582/582/292
f 583/583/293 584/584/293 577/577/293
f 578/578/293 577/577/293 584/584/293
f 578/1/1 582/1/1 580/1/1
f 578/1/1 584/1/1 582/1/1
f 585/585/294 586/586/294 587/587/294
f 588/588/294 587/587/294 586/586/294
f 587/587/295 588/588/295 589/589/295
f 590/590/295 589/589/295 588/588/295
f 589/589/296 590/590/296 591/591/296
f 592/592/296 591/591/296 590/590/296
f 591/591/297 592/592/297 585/585/297
f 586/586/297 585/585/297 592/592/297
f 586/1/1 590/1/1 588/1/1
f 586/1/1 592/1/1 590/1/1
f 593/593/298 594/594/298 595/595/298
f 596/596/298 595/595/298 594/594/298
f 595/595/299 596/596/299 597/597/299
f 598/598/299 597/597/299 596/596/299
f 597/597/300 598/598/300 599/599/300
f 600/600/300 599/599/300 598/598/300
f 599/599/301 600/600/301 593/593/301
f 594/594/301 593/593/301 600/600/301
f 594/1/1 598/1/1 596/1/1
f 594/1/1 600/1/1 598/1/1
f 601/601/302 602/602/302 603/603/302
f 604/604/302 603/603/302 602/602/302
f 603/603/303 604/604/303 605/605/303
f 606/606/303 605/605/303 604/604/303
f 605/605/304 606/606/304 607/607/304
f 608/608/304 607/607/304 606/606/304
f 607/607/305 608/608/305 601/601/305
f 602/602/305 601/601/305 608/608/305
f 602/1/1 606/1/1 604/1/1
f 602/1/1 608/1/1 606/1/1
f 609/609/306 610/610/306 611/611/306
f 612/612/306 611/611/306 610/610/306
f 611/611/307 612/612/307 613/613/307
f 614/614/307 613/613/307 612/612/307
f 613/613/308 614/614/308 615/615/308
f 616/616/308 615/615/308 614/614/308
f 615/615/309 616/616/309 609/609/309
f 610/610/309 609/609/309 616/616/309
f 610/1/1 614/1/1 612/1/1
f 610/1/1 616/1/1 614/1/1
f 617/617/310 618/618/310 619/619/310
f 620/620/310 619/619/310 618/618/310
f 619/619/311 620/620/311 621/621/311
f 622/622/311 621/621/311 620/620/311
f 621/621/312 622/622/312 623/623/312
f 624/624/312 623/623/312 622/622/312
f 623/623/313 624/624/313 617/617/313
f 618/618/313 617/617/313 624/624/313
f 618/1/1 622/1/1 620/1/1
f 618/1/1 624/1/1 622/1/1
f 625/625/314 626/626/314 627/627/314
f 628/628/314 627/627/314 626/626/314
f 627/627/315 628/628/315 629/629/315
f 630/630/315 629/629/315 628/628/315
f 629/629/316 630/630/316 631/631/316
f 632/632/316 631/631/316 630/630/316
f 631/631/317 632/632/317 625/625/317
f 626/626/317 625/625/317 632/632/317
f 626/1/1 630/1/1 628/1/1
f 626/1/1 632/1/1 630/1/1
f 633/633/318 634/634/318 635/635/318
f 636/636/318 635/635/318 634/634/318
f 635/635/319 636/636/319 637/637/319
f 638/638/319 637/637/319 636/636/319
f 637/637/320 638/638/320 639/639/320
f 640/640/320 639/639/320 638/638/320
f 639/639/321 640/640/321 633/633/321
f 634/634/321 633/633/321 640/640/321
f 634/1/1 638/1/1 636/1/1
f 634/1/1 640/1/1 638/1/1
f 641/641/322 642/642/322 643/643/322
f 644/644/322 643/643/322 642/642/322
f 643/643/323 644/644/323 645/645/323
f 646/646/323 645/645/323 644/644/323
f 645/645/324 646/646/324 647/647/324
f 648/648/324 647/647/324 646/646/324
f 647/647/325 648/648/325 641/641/325
f 642/642/325 641/641/325 648/648/325
f 642/1/1 646/1/1 644/1/1
f 642/1/1 648/1/1 646/1/1
f 649/649/326 650/650/326 651/651/326
f 652/652/326 651/651/326 650/650/326
f 651/651/327 652/652/327 653/653/327
f 654/654/327 653/653/327 652/652/327
f 653/653/328 654/654/328 655/655/328
f 656/656/328 655/655/328 654/654/328
f 655/655/329 656/656/329 649/649/329
f 650/650/329 649/649/329 656/656/329
f 650/1/1 654/1/1 652/1/1
f 650/1/1 656/1/1 654/1/1
f 657/657/330 658/658/330 659/659/330
f 660/660/330 659/659/330 658/658/330
f 659/659/331 660/660/331 661/661/331
f 662/662/331 661/661/331 660/660/331
f 661/661/332 662/662/332 663/663/332
f 664/664/332 663/663/332 662/662/332
f 663/663/333 664/664/333 657/657/333
f 658/658/333 657/657/333 664/664/333
f 658/1/1 662/1/1 660/1/1
f 658/1/1 664/1/1 662/1/1
f 665/665/334 666/666/334 667/667/334
f 668/668/334 667/667/334 666/666/334
f 667/667/335 668/668/335 669/669/335
f 670/670/335 669/669/335 668/668/335
f 669/669/336 670/670/336 671/671/336
f 672/672/336 671/671/336 670/670/336
f 671/671/337 672/672/337 665/665/337
f 666/666/337 665/665/337 672/672/337
f 666/1/1 670/1/1 668/1/1
f 666/1/1 672/1/1 670/1/1
f 673/673/338 674/674/338 675/675/338
f 676/676/338 675/675/338 674/674/338
f 675/675/339 676/676/339 677/677/339
f 678/678/339 677/677/339 676/676/339
f 677/677/340 678/678/340 679/679/340
f 680/680/340 679/679/340 678/678/340
f 679/679/341 680/680/341 673/673/341
f 674/674/341 673/673/341 680/680/341
f 674/1/1 678/1/1 676/1/1
f 674/1/1 680/1/1 678/1/1
f 681/681/342 682/682/342 683/683/342
f 684/684/342 683/683/342 682/682/342
f 683/683/343 684/684/343 685/685/343
f 686/686/343 685/685/343 684/684/343
f 685/685/344 686/686/344 687/687/344
f 688/688/344 687/687/344 686/686/344
f 687/687/345 688/688/345 681/681/345
f 682/682/345 681/681/345 688/688/345
f 682/1/1 686/1/1 684/1/1
f 682/1/1 688/1/1 686/1/1
f 689/689/346 690/690/346 691/691/346
f 692/692/346 691/691/346 690/690/346
f 691/691/347 692/692/347 693/693/347
f 694/694/347 693/693/347 692/692/347
f 693/693/348 694/694/348 695/695/348
f 696/696/348 695/695/348 694/694/348
f 695/695/349 696/696/349 689/689/349
f 690/690/349 689/689/349 696/696/349
f 690/1/1 694/1/1 692/1/1
f 690/1/1 696/1/1 694/1/1
f 697/697/350 698/698/350 699/699/350
f 700/700/350 699/699/350 698/698/350
f 699/699/351 700/700/351 701/701/351
f 702/702/351 701/701/351 700/700/351
f 701/701/352 702/702/352 703/703/352
f 704/704/352 703/703/352 702/702/352
f 703/703/353 704/704/353 697/697/353
f 698/698/353 697/697/353 704/704/353
f 698/1/1 702/1/1 700/1/1
f 698/1/1 704/1/1 702/1/1
f 705/705/354 706/706/354 707/707/354
f 708/708/354 707/707/354 706/706/354
f 707/707/355 708/708/355 709/709/355
f 710/710/355 709/709/355 708/708/355
f 709/709/356 710/710/356 711/711/356
f 712/712/356 711/711/356 710/710/356
f 711/711/357 712/712/357 705/705/357
f 706/706/357 705/705/357 712/712/357
f 706/1/1 710/1/1 708/1/1
f 706/1/1 712/1/1 710/1/1
f 713/713/358 714/714/358 715/715/358
f 716/716/358 715/715/358 714/714/358
f 715/715/359 716/716/359 717/717/359
f 718/718/359 717/717/359 716/716/359
f 717/717/360 718/718/360 719/719/360
f 720/720/360 719/719/360 718/718/360
f 719/719/361 720/720/361 713/713/361
f 714/714/361 713/713/361 720/720/361
f 714/1/1 718/1/1 716/1/1
f 714/1/1 720/1/1 718/1/1
f 721/721/362 722/722/362 723/723/362
f 724/724/362 723/723/362 722/722/362
f 723/723/363 724/724/363 725/725/363
f 726/726/363 725/725/363 724/724/363
f 725/725/364 726/726/364 727/727/364
f 728/728/364 727/727/364 726/726/364
f 727/727/365 728/728/365 721/721/365
f 722/722/365 721/721/365 728/728/365
f 722/1/1 726/1/1 724/1/1
f 722/1/1 728/1/1 726/1/1
f 729/729/366 730/730/366 731/731/366
f 732/732/366 731/731/366 730/730/366
f 731/731/367 732/732/367 733/733/367
f 734/734/367 733/733/367 732/732/367
f 733/733/368 734/734/368 735/735/368
f 736/736/368 735/735/368 734/734/368
f 735/735/369 736/736/369 729/729/369
f 730/730/369 729/729/369 736/736/369
f 730/1/1 734/1/1 732/1/1
f 730/1/1 736/1/1 734/1/1
f 737/737/370 738/738/370 739/739/370
f 740/740/370 739/739/370 738/738/370
f 739/739/371 740/740/371 741/741/371
f 742/742/371 741/741/371 740/740/371
f 741/741/372 742/742/372 743/743/372
f 744/744/372 743/743/372 742/742/372
f 743/743/373 744/744/373 737/737/373
f 738/738/373 737/737/373 744/744/373
f 738/1/1 742/1/1 740/1/1
f 738/1/1 744/1/1 742/1/1
f 745/745/374 746/746/374 747/747/374
f 748/748/374 747/747/374 746/746/374
f 747/747/375 748/748/375 749/749/375
f 750/750/375 749/749/375 748/748/375
f 749/749/376 750/750/376 751/751/376
f 752/752/376 751/751/376 750/750/376
f 751/751/377 752/752/377 745/745/377
f 746/746/377 745/745/377 752/752/377
f 746/1/1 750/1/1 748/1/1
f 746/1/1 752/1/1 750/1/1
f 753/753/378 754/754/378 755/755/378
f 756/756/378 755/755/378 754/754/378
f 755/755/379 756/756/379 757/757/379
f 758/758/379 757/757/379 756/756/379
f 757/757/380 758/758/380 759/759/380
f 760/760/380 759/759/380 758/758/380
f 759/759/381 760/760/381 753/753/381
f 754/754/381 753/753/381 760/760/381
f 754/1/1 758/1/1 756/1/1
f 754/1/1 760/1/1 758/1/1
f 761/761/382 762/762/382 763/763/382
f 764/764/382 763/763/382 762/762/382
f 763/763/383 764/764/383 765/765/383
f 766/766/383 765/765/383 764/764/383
f 765/765/384 766/766/384 767/767/384
f 768/768/384 767/767/384 766/766/384
f 767/767/385 768/768/385 761/761/385
f 762/762/385 761/761/385 768/768/385
f 762/1/1 766/1/1 764/1/1
f 762/1/1 768/1/1 766/1/1
f 769/769/386 770/770/386 771/771/386
f 772/772/386 771/771/386 770/770/386
f 771/771/387 772/772/387 773/773/387
f 774/774/387 773/773/387 772/772/387
f 773/773/388 774/774/388 775/775/388
f 776/776/388 775/775/388 774/774/388
f 775/775/389 776/776/389 769/769/389
f 770/770/389 769/769/389 776/776/389
f 770/1/1 774/1/1 772/1/1
f 770/1/1 776/1/1 774/1/1
f 777/777/390 778/778/390 779/779/390
f 780/780/390 779/779/390 778/778/390
f 779/779/391 780/780/391 781/781/391
f 782/782/391 781/781/391 780/780/391
f 781/781/392 782/782/392 783/783/392
f 784/784/392 783/783/392 782/782/392
f 783/783/393 784/784/393 777/777/393
f 778/778/393 777/777/393 784/784/393
f 778/1/1 782/1/1 780/1/1
f 778/1/1 784/1/1 782/1/1
f 785/785/394 786/786/394 787/787/394
f 788/788/394 787/787/394 786/786/394
f 787/787/395 788/788/395 789/789/395
f 790/790/395 789/789/395 788/788/395
f 789/789/396 790/790/396 791/791/396
f 792/792/396 791/791/396 790/790/396
f 791/791/397 792/792/397 785/785/397
f 786/786/397 785/785/397 792/792/397
f 786/1/1 790/1/1 788/1/1
f 786/1/1 792/1/1 790/1/1
f 793/793/398 794/794/398 795/795/398
f 796/796/398 795/795/398 794/794/398
f 795/795/399 796/796/399 797/797/399
f 798/798/399 797/797/399 796/796/399
f 797/797/400 798/798/400 799/799/400
f 800/800/400 799/799/400 798/798/400
f 799/799/401 800/800/401 793/793/401
f 794/794/401 793/793/401 800/800/401
f 794/1/1 798/1/1 796/1/1
f 794/1/1 800/1/1 798/1/1
f 801/801/402 802/802/402 803/803/402
f 804/804/402 803/803/402 802/802/402
f 803/803/403 804/804/403 805/805/403
f 806/806/403 805/805/403 804/804/403
f 805/805/404 806/806/404 807/807/404
f 808/808/404 807/807/404 806/806/404
f 807/807/405 808/808/405 801/801/405
f 802/802/405 801/801/405 808/808/405
f 802/1/1 806/1/1 804/1/1
f 802/1/1 808/1/1 806/1/1
f 809/809/406 810/810/406 811/811/406
f 812/812/406 811/811/406 810/810/406
f 811/811/407 812/812/407 813/813/407
f 814/814/407 813/813/407 812/812/407
f 813/813/408 814/814/408 815/815/408
f 816/816/408 815/815/408 814/814/408
f 815/815/409 816/816/409 809/809/409
f 810/810/409 809/809/409 816/816/409
f 810/1/1 814/1/1 812/1/1
f 810/1/1 816/1/1 814/1/1
f 817/817/410 818/818/410 819/819/410
f 820/820/410 819/819/410 818/818/410
f 819/819/411 820/820/411 821/821/411
f 822/822/411 821/821/411 820/820/411
f 821/821/412 822/822/412 823/823/412
f 824/824/412 823/823/412 822/822/412
f 823/823/413 824/824/413 817/817/413
f 818/818/413 817/817/413 824/824/413
f 818/1/1 822/1/1 820/1/1
f 818/1/1 824/1/1 822/1/1
f 825/825/414 826/826/414 827/827/414
f 828/828/414 827/827/414 826/826/414
f 827/827/415 828/828/415 829/829/415
f 830/830/415 829/829/415 828/828/415
f 829/829/416 830/830/416 831/831/416
f 832/832/416 831/831/416 830/830/416
f 831/831/417 832/832/417 825/825/417
f 826/826/417 825/825/417 832/832/417
f 826/1/1 830/1/1 828/1/1
f 826/1/1 832/1/1 830/1/1
f 833/833/418 834/834/418 835/835/418
f 836/836/418 835/835/418 834/834/418
f 835/835/419 836/836/419 837/837/419
f 838/838/419 837/837/419 836/836/419
f 837/837/420 838/838/420 839/839/420
f 840/840/420 839/839/420 838/838/420
f 839/839/421 840/840/421 833/833/421
f 834/834/421 833/833/421 840/840/421
f 834/1/1 838/1/1 836/1/1
f 834/1/1 840/1/1 838/1/1
